<svg width="39" height="38" viewBox="0 0 39 38" fill="none" xmlns="http://www.w3.org/2000/svg">
<g id="Group">
<path id="Vector" d="M24.9286 0H3.21429C2.49441 0 1.80402 0.285968 1.295 0.794996C0.785968 1.30402 0.5 1.99441 0.5 2.71429V24.4286C0.5 25.1484 0.785968 25.8388 1.295 26.3479C1.80402 26.8569 2.49441 27.1429 3.21429 27.1429H24.9286C25.6484 27.1429 26.3388 26.8569 26.8479 26.3479C27.3569 25.8388 27.6429 25.1484 27.6429 24.4286V2.71429C27.6429 1.99441 27.3569 1.30402 26.8479 0.794996C26.3388 0.285968 25.6484 0 24.9286 0Z" fill="#C80A50"/>
<path id="Vector_2" d="M3.21436 2.71436H24.9286V24.4286H3.21436V2.71436Z" fill="#0A5078"/>
<path id="Vector_3" d="M24.9285 2.03564H3.21422C3.03425 2.03564 2.86165 2.10714 2.73439 2.23439C2.60714 2.36165 2.53564 2.53425 2.53564 2.71422V24.4285C2.53564 24.6085 2.60714 24.7811 2.73439 24.9083C2.86165 25.0356 3.03425 25.1071 3.21422 25.1071H7.96422C8.14418 25.1071 8.31678 25.0356 8.44404 24.9083C8.57129 24.7811 8.64279 24.6085 8.64279 24.4285C8.64279 24.2485 8.57129 24.0759 8.44404 23.9487C8.31678 23.8214 8.14418 23.7499 7.96422 23.7499H3.89279V3.39279H9.32136V10.1785H7.28564C7.10568 10.1785 6.93308 10.25 6.80582 10.3772C6.67857 10.5045 6.60707 10.6771 6.60707 10.8571C6.60707 11.037 6.67857 11.2096 6.80582 11.3369C6.93308 11.4642 7.10568 11.5356 7.28564 11.5356H12.7142C12.8942 11.5356 13.0668 11.4642 13.194 11.3369C13.3213 11.2096 13.3928 11.037 13.3928 10.8571C13.3928 10.6771 13.3213 10.5045 13.194 10.3772C13.0668 10.25 12.8942 10.1785 12.7142 10.1785H10.6785V3.39279H16.1071V15.6071C16.1071 15.787 16.1786 15.9596 16.3058 16.0869C16.4331 16.2142 16.6057 16.2856 16.7856 16.2856C16.9656 16.2856 17.1382 16.2142 17.2655 16.0869C17.3927 15.9596 17.4642 15.787 17.4642 15.6071V3.39279H24.2499V23.7499H17.4642V19.6785C17.4642 19.4985 17.3927 19.3259 17.2655 19.1987C17.1382 19.0714 16.9656 18.9999 16.7856 18.9999C16.6057 18.9999 16.4331 19.0714 16.3058 19.1987C16.1786 19.3259 16.1071 19.4985 16.1071 19.6785V23.7499H12.0356C11.8557 23.7499 11.6831 23.8214 11.5558 23.9487C11.4286 24.0759 11.3571 24.2485 11.3571 24.4285C11.3571 24.6085 11.4286 24.7811 11.5558 24.9083C11.6831 25.0356 11.8557 25.1071 12.0356 25.1071H24.9285C25.1085 25.1071 25.2811 25.0356 25.4083 24.9083C25.5356 24.7811 25.6071 24.6085 25.6071 24.4285V2.71422C25.6071 2.53425 25.5356 2.36165 25.4083 2.23439C25.2811 2.10714 25.1085 2.03564 24.9285 2.03564Z" fill="#FAB400"/>
<path id="Vector_4" d="M32.1943 2.23481L30.8372 0.877669C30.7742 0.814599 30.6994 0.764562 30.6171 0.730423C30.5348 0.696284 30.4465 0.678711 30.3574 0.678711C30.2683 0.678711 30.1801 0.696284 30.0977 0.730423C30.0154 0.764562 29.9406 0.814599 29.8777 0.877669L28.5205 2.23481C28.4575 2.29781 28.4075 2.37261 28.3735 2.45492C28.3394 2.53724 28.3218 2.62546 28.3218 2.71456C28.3218 2.80366 28.3394 2.89188 28.3735 2.9742C28.4075 3.05652 28.4575 3.13131 28.5205 3.19431C28.5835 3.25731 28.6583 3.30729 28.7406 3.34139C28.823 3.37548 28.9112 3.39303 29.0003 3.39303C29.0894 3.39303 29.1776 3.37548 29.2599 3.34139C29.3422 3.30729 29.417 3.25731 29.48 3.19431L29.6788 2.99549V29.1788H3.49549L3.69431 28.98C3.75731 28.917 3.80729 28.8422 3.84139 28.7599C3.87548 28.6776 3.89303 28.5894 3.89303 28.5003C3.89303 28.4112 3.87548 28.323 3.84139 28.2406C3.80729 28.1583 3.75731 28.0835 3.69431 28.0205C3.63131 27.9575 3.55652 27.9075 3.4742 27.8735C3.39188 27.8394 3.30366 27.8218 3.21456 27.8218C3.12546 27.8218 3.03724 27.8394 2.95492 27.8735C2.87261 27.9075 2.79781 27.9575 2.73481 28.0205L1.37767 29.3777C1.3146 29.4406 1.26456 29.5154 1.23042 29.5977C1.19628 29.6801 1.17871 29.7683 1.17871 29.8574C1.17871 29.9465 1.19628 30.0348 1.23042 30.1171C1.26456 30.1994 1.3146 30.2742 1.37767 30.3372L2.73481 31.6943C2.79768 31.7575 2.87244 31.8077 2.95477 31.842C3.0371 31.8762 3.12539 31.8938 3.21456 31.8938C3.30373 31.8938 3.39202 31.8762 3.47435 31.842C3.55669 31.8077 3.63144 31.7575 3.69431 31.6943C3.75738 31.6313 3.80742 31.5566 3.84156 31.4742C3.8757 31.3919 3.89327 31.3037 3.89327 31.2146C3.89327 31.1254 3.8757 31.0372 3.84156 30.9549C3.80742 30.8726 3.75738 30.7978 3.69431 30.7348L3.49549 30.536H30.3574C30.5374 30.536 30.71 30.4645 30.8372 30.3372C30.9645 30.21 31.036 30.0374 31.036 29.8574V2.99549L31.2348 3.19431C31.2977 3.25754 31.3724 3.30772 31.4548 3.34197C31.5371 3.37621 31.6254 3.39384 31.7146 3.39384C31.8037 3.39384 31.892 3.37621 31.9744 3.34197C32.0567 3.30772 32.1314 3.25754 32.1943 3.19431C32.2574 3.13135 32.3074 3.05657 32.3416 2.97425C32.3757 2.89193 32.3933 2.80368 32.3933 2.71456C32.3933 2.62544 32.3757 2.5372 32.3416 2.45488C32.3074 2.37256 32.2574 2.29778 32.1943 2.23481Z" fill="#00A0C8"/>
<path id="Vector_5" d="M30.3571 21.0356C30.1305 21.0383 29.9041 21.0498 29.6785 21.0703V29.1785H21.5703C21.5526 29.4031 21.5356 29.6277 21.5356 29.8571C21.5356 30.0864 21.5526 30.311 21.5703 30.5356H30.3571C30.537 30.5356 30.7096 30.4642 30.8369 30.3369C30.9642 30.2096 31.0356 30.037 31.0356 29.8571V21.0703C30.81 21.0498 30.5836 21.0383 30.3571 21.0356Z" fill="#0082AA"/>
<path id="Vector_6" d="M30.3572 38.0001C34.8544 38.0001 38.5001 34.3544 38.5001 29.8572C38.5001 25.36 34.8544 21.7144 30.3572 21.7144C25.86 21.7144 22.2144 25.36 22.2144 29.8572C22.2144 34.3544 25.86 38.0001 30.3572 38.0001Z" fill="#0A5078"/>
<g id="Group_2">
<path id="Vector_7" d="M29 27.8212C28.4789 27.8212 28.0032 28.018 27.6429 28.341C27.2703 28.0059 26.7868 27.8208 26.2857 27.8212C25.1634 27.8212 24.25 28.7346 24.25 29.8569V32.5712C24.25 32.7512 24.3215 32.9238 24.4487 33.051C24.576 33.1783 24.7486 33.2498 24.9286 33.2498C25.1085 33.2498 25.2811 33.1783 25.4084 33.051C25.5357 32.9238 25.6071 32.7512 25.6071 32.5712V29.8569C25.6071 29.483 25.9118 29.1784 26.2857 29.1784C26.6596 29.1784 26.9643 29.483 26.9643 29.8569V32.5712C26.9643 32.7512 27.0358 32.9238 27.163 33.051C27.2903 33.1783 27.4629 33.2498 27.6429 33.2498C27.8228 33.2498 27.9954 33.1783 28.1227 33.051C28.2499 32.9238 28.3214 32.7512 28.3214 32.5712V29.8569C28.3214 29.483 28.6261 29.1784 29 29.1784C29.3739 29.1784 29.6786 29.483 29.6786 29.8569V32.5712C29.6786 32.7512 29.7501 32.9238 29.8773 33.051C30.0046 33.1783 30.1772 33.2498 30.3571 33.2498C30.5371 33.2498 30.7097 33.1783 30.837 33.051C30.9642 32.9238 31.0357 32.7512 31.0357 32.5712V29.8569C31.0357 28.7346 30.1224 27.8212 29 27.8212ZM34.1253 28.7319L35.7145 27.9373C35.9403 27.8251 36.1303 27.652 36.2628 27.4374C36.3953 27.2228 36.4651 26.9755 36.4643 26.7233V26.4641C36.4643 25.7156 35.8556 25.1069 35.1071 25.1069H33.0714C32.8915 25.1069 32.7189 25.1784 32.5916 25.3057C32.4643 25.4329 32.3929 25.6055 32.3929 25.7855C32.3929 25.9655 32.4643 26.1381 32.5916 26.2653C32.7189 26.3926 32.8915 26.4641 33.0714 26.4641H35.1071V26.7233L33.5179 27.5179C33.179 27.6859 32.894 27.9456 32.6951 28.2673C32.4962 28.5891 32.3915 28.9602 32.3929 29.3385V29.8569C32.3929 30.0369 32.4643 30.2095 32.5916 30.3368C32.7189 30.464 32.8915 30.5355 33.0714 30.5355H35.7857C35.9657 30.5355 36.1383 30.464 36.2655 30.3368C36.3928 30.2095 36.4643 30.0369 36.4643 29.8569C36.4643 29.677 36.3928 29.5044 36.2655 29.3771C36.1383 29.2499 35.9657 29.1784 35.7857 29.1784H33.769C33.792 29.0824 33.8358 28.9926 33.8974 28.9154C33.9589 28.8382 34.0367 28.7756 34.1253 28.7319Z" fill="#F0F0F0"/>
</g>
</g>
</svg>
