<svg width="39" height="38" viewBox="0 0 39 38" fill="none" xmlns="http://www.w3.org/2000/svg">
<g id="Frame" clip-path="url(#clip0_355_1070)">
<g id="Group">
<path id="Vector" fill-rule="evenodd" clip-rule="evenodd" d="M30.6641 21.6155C30.5847 21.6183 30.506 21.5997 30.4362 21.5617C30.3663 21.5238 30.3079 21.4678 30.2671 21.3997C30.2262 21.3315 30.2043 21.2537 30.2036 21.1742C30.203 21.0947 30.2236 21.0165 30.2634 20.9477L33.0016 16.2061C33.0606 16.1027 33.1583 16.0271 33.2731 15.9958C33.3879 15.9645 33.5104 15.9801 33.6137 16.0391C33.7171 16.0981 33.7927 16.1958 33.824 16.3106C33.8553 16.4254 33.8397 16.548 33.7807 16.6513L31.0426 21.3929C31.0041 21.4596 30.949 21.5151 30.8827 21.5541C30.8164 21.5932 30.7411 21.6143 30.6641 21.6155Z" fill="#E6E6E6"/>
<path id="Vector_2" fill-rule="evenodd" clip-rule="evenodd" d="M33.3799 16.8741C33.2726 16.8753 33.1684 16.8376 33.0865 16.7681C33.0047 16.6985 32.9508 16.6018 32.9347 16.4956L32.623 14.3585C32.623 14.2472 32.623 14.1359 32.6898 14.0691L34.0255 11.7094C34.0553 11.6573 34.0953 11.6118 34.1432 11.5756C34.191 11.5394 34.2457 11.5132 34.3039 11.4986C34.3622 11.4841 34.4227 11.4815 34.482 11.4909C34.5413 11.5003 34.598 11.5217 34.6488 11.5536L37.0085 12.8893C37.0606 12.9191 37.1061 12.9591 37.1424 13.007C37.1786 13.0548 37.2048 13.1095 37.2193 13.1677C37.2339 13.2259 37.2365 13.2865 37.2271 13.3458C37.2176 13.405 37.1963 13.4618 37.1643 13.5126L35.8064 15.8723C35.7537 15.9545 35.6755 16.017 35.5838 16.0504L33.5358 16.8518C33.4856 16.8684 33.4328 16.8759 33.3799 16.8741Z" fill="#E6E6E6"/>
<path id="Vector_3" fill-rule="evenodd" clip-rule="evenodd" d="M30.9087 25.8229C30.7944 25.8272 30.6828 25.7874 30.5971 25.7116C29.5486 24.6411 28.247 23.8524 26.8126 23.4187C26.7447 23.4014 26.6819 23.3682 26.6292 23.322C26.5765 23.2758 26.5354 23.2178 26.5094 23.1527C26.4833 23.0876 26.4731 23.0173 26.4793 22.9474C26.4856 22.8776 26.5083 22.8103 26.5455 22.7509L28.2596 19.8124C28.3198 19.7132 28.4163 19.6415 28.5285 19.6124C28.6408 19.5833 28.7599 19.5991 28.8607 19.6565L32.8677 21.9717C32.9707 22.0282 33.0471 22.123 33.0805 22.2356C33.1138 22.3482 33.1014 22.4693 33.0458 22.5728L31.2872 25.6448C31.2487 25.7115 31.1936 25.767 31.1273 25.806C31.061 25.845 30.9857 25.8662 30.9087 25.8674V25.8229Z" fill="#FF5959"/>
<path id="Vector_4" fill-rule="evenodd" clip-rule="evenodd" d="M10.406 24.1091C10.3253 24.1118 10.2454 24.0926 10.1748 24.0533C10.1042 24.0141 10.0456 23.9565 10.0053 23.8865L7.00004 18.6996C6.941 18.5963 6.92542 18.4738 6.95673 18.359C6.98804 18.2441 7.06368 18.1465 7.167 18.0874C7.27032 18.0284 7.39286 18.0128 7.50767 18.0441C7.62247 18.0754 7.72014 18.1511 7.77918 18.2544L10.7845 23.4635C10.8232 23.5307 10.8438 23.6068 10.8441 23.6844C10.8444 23.7619 10.8245 23.8382 10.7863 23.9057C10.748 23.9732 10.6928 24.0295 10.6261 24.0691C10.5594 24.1087 10.4836 24.1301 10.406 24.1314V24.1091Z" fill="#E6E6E6"/>
<path id="Vector_5" fill-rule="evenodd" clip-rule="evenodd" d="M35.4501 38H3.54972C3.43164 38 3.31839 37.953 3.2349 37.8696C3.1514 37.7861 3.10449 37.6728 3.10449 37.5547C3.10449 29.1177 8.06876 22.2612 14.1683 22.2612H15.8602L19.4888 26.9806L23.1396 22.2612H24.8092C30.9088 22.2612 35.8731 29.0732 35.8954 37.4879C35.905 37.5518 35.9007 37.6169 35.8827 37.6789C35.8647 37.7409 35.8335 37.7982 35.7911 37.8469C35.7488 37.8956 35.6964 37.9345 35.6375 37.9609C35.5786 37.9874 35.5147 38.0007 35.4501 38Z" fill="#3C5174"/>
<g id="Group_2">
<path id="Vector_6" fill-rule="evenodd" clip-rule="evenodd" d="M3 34.3773C3.03792 34.0795 3.08245 33.7827 3.13357 33.4869H9.63386C9.75194 33.4869 9.86519 33.5338 9.94868 33.6173C10.0322 33.7008 10.0791 33.814 10.0791 33.9321C10.0791 34.0502 10.0322 34.1634 9.94868 34.2469C9.86519 34.3304 9.75194 34.3773 9.63386 34.3773H3ZM35.2343 33.4869C35.2929 33.7825 35.3448 34.0794 35.3902 34.3773H28.7563C28.6382 34.3773 28.525 34.3304 28.4415 34.2469C28.358 34.1634 28.3111 34.0502 28.3111 33.9321C28.3111 33.814 28.358 33.7008 28.4415 33.6173C28.525 33.5338 28.6382 33.4869 28.7563 33.4869H35.2343ZM23.5694 22H24.5044C25.5724 21.9964 26.6309 22.2006 27.621 22.6011V30.4816C27.621 30.5997 27.5741 30.7129 27.4906 30.7964C27.4071 30.8799 27.2938 30.9268 27.1757 30.9268C27.065 30.9274 26.958 30.8866 26.8757 30.8125C26.7933 30.7384 26.7416 30.6363 26.7305 30.5261C26.7187 30.228 26.5889 29.9467 26.3698 29.7442C26.1506 29.5418 25.86 29.4346 25.5618 29.4464C25.2636 29.4583 24.9824 29.588 24.7799 29.8072C24.5774 30.0264 24.4703 30.317 24.4821 30.6152C24.4821 30.7332 24.4352 30.8465 24.3517 30.93C24.2682 31.0135 24.155 31.0604 24.0369 31.0604C23.9188 31.0604 23.8056 31.0135 23.7221 30.93C23.6386 30.8465 23.5917 30.7332 23.5917 30.6152V22H23.5694ZM10.7469 22.6011C11.737 22.2006 12.7955 21.9964 13.8635 22H14.7985V30.4816C14.7985 30.5401 14.787 30.598 14.7646 30.652C14.7422 30.706 14.7094 30.7551 14.6681 30.7964C14.6267 30.8378 14.5776 30.8706 14.5236 30.8929C14.4696 30.9153 14.4117 30.9268 14.3533 30.9268C14.2425 30.9274 14.1355 30.8866 14.0532 30.8125C13.9709 30.7384 13.9191 30.6363 13.908 30.5261C13.8962 30.225 13.7653 29.9409 13.544 29.7364C13.3228 29.5318 13.0293 29.4235 12.7282 29.4353C12.4271 29.4471 12.143 29.5781 11.9384 29.7993C11.7339 30.0206 11.6256 30.3141 11.6374 30.6152C11.6374 30.6736 11.6259 30.7315 11.6035 30.7855C11.5811 30.8396 11.5483 30.8886 11.507 30.93C11.4656 30.9713 11.4165 31.0041 11.3625 31.0265C11.3085 31.0489 11.2506 31.0604 11.1921 31.0604C11.1337 31.0604 11.0758 31.0489 11.0218 31.0265C10.9678 31.0041 10.9187 30.9713 10.8773 30.93C10.836 30.8886 10.8032 30.8396 10.7808 30.7855C10.7584 30.7315 10.7469 30.6736 10.7469 30.6152V22.6011Z" fill="#808DA4"/>
<path id="Vector_7" fill-rule="evenodd" clip-rule="evenodd" d="M9.49316 38V30.8764C9.49316 30.7583 9.54007 30.6451 9.62357 30.5616C9.70706 30.4781 9.82031 30.4312 9.93839 30.4312H29.0608C29.1789 30.4312 29.2922 30.4781 29.3756 30.5616C29.4591 30.6451 29.5061 30.7583 29.5061 30.8764V38H9.49316Z" fill="#808DA4"/>
</g>
<path id="Vector_8" fill-rule="evenodd" clip-rule="evenodd" d="M13.5228 37.9998H12.6323V32.4345C12.6323 32.3164 12.6792 32.2032 12.7627 32.1197C12.8462 32.0362 12.9595 31.9893 13.0775 31.9893C13.1956 31.9893 13.3089 32.0362 13.3924 32.1197C13.4759 32.2032 13.5228 32.3164 13.5228 32.4345V37.9998Z" fill="#334562"/>
<path id="Vector_9" fill-rule="evenodd" clip-rule="evenodd" d="M13.0776 32.8799C12.8131 32.8799 12.5511 32.8278 12.3067 32.7265C12.0622 32.6253 11.8401 32.4769 11.6531 32.2898C11.466 32.1027 11.3176 31.8806 11.2163 31.6362C11.1151 31.3918 11.063 31.1298 11.063 30.8652C11.063 30.6007 11.1151 30.3387 11.2163 30.0943C11.3176 29.8498 11.466 29.6277 11.6531 29.4407C11.8401 29.2536 12.0622 29.1052 12.3067 29.0039C12.5511 28.9027 12.8131 28.8506 13.0776 28.8506C13.612 28.8506 14.1244 29.0628 14.5022 29.4407C14.88 29.8185 15.0923 30.3309 15.0923 30.8652C15.0923 31.3995 14.88 31.912 14.5022 32.2898C14.1244 32.6676 13.612 32.8799 13.0776 32.8799Z" fill="#334562"/>
<path id="Vector_10" fill-rule="evenodd" clip-rule="evenodd" d="M19.489 21.1483C15.9717 21.1483 13.2559 17.5865 12.1651 14.1806C11.6265 13.9437 11.1667 13.5582 10.8394 13.0693C10.5122 12.5804 10.3311 12.0083 10.3174 11.4202C10.3225 10.8434 10.4769 10.2777 10.7656 9.77838C11.0543 9.27902 11.4674 8.86295 11.9647 8.57073C12.0338 8.5369 12.1105 8.52156 12.1873 8.5262H26.813C26.8898 8.52156 26.9665 8.5369 27.0356 8.57073C27.5329 8.86295 27.946 9.27902 28.2347 9.77838C28.5234 10.2777 28.6778 10.8434 28.6829 11.4202C28.6734 12.0122 28.4943 12.589 28.1668 13.0822C27.8393 13.5755 27.3772 13.9644 26.8353 14.2028C25.7222 17.5865 23.0063 21.1483 19.489 21.1483Z" fill="#FEC9A3"/>
<path id="Vector_11" fill-rule="evenodd" clip-rule="evenodd" d="M26.8126 9.41652H12.1869C12.0688 9.41652 11.9556 9.36961 11.8721 9.28612C11.7886 9.20262 11.7417 9.08938 11.7417 8.97129V8.45928L12.2314 4.45226C12.6099 1.40246 16.1494 0 19.4886 0C22.7388 0 26.3896 1.42472 26.7681 4.51904L27.2133 8.45928V8.88225C27.2267 8.94769 27.2251 9.01529 27.2088 9.08006C27.1925 9.14483 27.1619 9.2051 27.1191 9.25641C27.0763 9.30772 27.0226 9.34875 26.9618 9.37647C26.9011 9.40418 26.8348 9.41787 26.7681 9.41652H26.8126Z" fill="#3C5174"/>
<path id="Vector_12" fill-rule="evenodd" clip-rule="evenodd" d="M24.1858 12.2435C23.9186 12.2435 23.6292 12.1767 23.273 12.1099C22.0342 11.8114 20.7628 11.6693 19.4886 11.687C17.4851 11.687 16.4166 11.9319 15.7042 12.1099C15.3911 12.1901 15.07 12.235 14.747 12.2435C13.9233 12.2435 13.5226 11.687 12.2314 9.79477L11.8307 9.23824C11.7811 9.1721 11.7509 9.09344 11.7435 9.01109C11.7361 8.92874 11.7517 8.84595 11.7887 8.772C11.8257 8.69804 11.8825 8.63585 11.9529 8.59238C12.0232 8.54891 12.1042 8.52588 12.1869 8.52588H26.8126C26.8954 8.52038 26.9781 8.53813 27.0513 8.57712C27.1246 8.61612 27.1855 8.6748 27.2271 8.74657C27.2688 8.81833 27.2896 8.9003 27.2871 8.98325C27.2847 9.06619 27.2591 9.1468 27.2133 9.21598L26.7681 9.81704C25.4546 11.687 25.0762 12.2658 24.208 12.2658L24.1858 12.2435Z" fill="#49648E"/>
<path id="Vector_13" fill-rule="evenodd" clip-rule="evenodd" d="M23.3402 6.32212H15.6601C15.6016 6.32212 15.5437 6.31061 15.4897 6.28823C15.4357 6.26586 15.3866 6.23306 15.3452 6.19172C15.3039 6.15038 15.2711 6.1013 15.2487 6.04728C15.2264 5.99326 15.2148 5.93537 15.2148 5.8769V3.53946C15.2148 3.42138 15.2618 3.30814 15.3452 3.22464C15.4287 3.14115 15.542 3.09424 15.6601 3.09424H23.3402C23.4583 3.09424 23.5715 3.14115 23.655 3.22464C23.7385 3.30814 23.7854 3.42138 23.7854 3.53946V5.8769C23.7854 5.99498 23.7385 6.10822 23.655 6.19172C23.5715 6.27522 23.4583 6.32212 23.3402 6.32212Z" fill="#D6D6D4"/>
<path id="Vector_14" fill-rule="evenodd" clip-rule="evenodd" d="M5.66456 19.3675C4.94819 19.3565 4.24854 19.1493 3.64171 18.7684C3.03488 18.3875 2.54412 17.8475 2.22279 17.2071C1.90146 16.5668 1.76187 15.8506 1.81921 15.1364C1.87654 14.4222 2.12861 13.7375 2.54799 13.1566C2.59238 13.0992 2.65012 13.0535 2.71619 13.0235C2.78226 12.9936 2.85465 12.9802 2.92707 12.9846C2.99949 12.989 3.06973 13.011 3.1317 13.0487C3.19366 13.0865 3.24547 13.1388 3.28261 13.2011L4.68507 15.6276L6.28788 14.6926L4.90768 12.2439C4.87944 12.1816 4.86592 12.1136 4.86818 12.0453C4.87044 11.9769 4.88841 11.91 4.9207 11.8497C4.953 11.7895 4.99874 11.7374 5.05439 11.6977C5.11004 11.6579 5.1741 11.6315 5.2416 11.6205C5.9961 11.5347 6.75919 11.6725 7.43599 12.0168C8.1128 12.3612 8.67346 12.8969 9.04828 13.5573C9.3069 13.9994 9.47526 14.4885 9.54359 14.9962C9.61193 15.5039 9.57889 16.02 9.44638 16.5149C9.31388 17.0097 9.08455 17.4733 8.77166 17.8789C8.45877 18.2845 8.06854 18.624 7.62356 18.8777C7.0271 19.2181 6.35128 19.3724 5.66456 19.3675Z" fill="#E6E6E6"/>
<path id="Vector_15" fill-rule="evenodd" clip-rule="evenodd" d="M23.1398 22.2612L22.1158 20.458C21.3096 20.8963 20.4066 21.1259 19.4889 21.1258C18.5789 21.1222 17.6839 20.8927 16.8844 20.458L15.8604 22.2389L19.4889 26.9806L23.1398 22.2612Z" fill="#FEC9A3"/>
<path id="Vector_16" fill-rule="evenodd" clip-rule="evenodd" d="M22.4049 20.9702L22.1155 20.4805C21.3094 20.9188 20.4063 21.1484 19.4887 21.1483C18.5786 21.1447 17.6837 20.9152 16.8841 20.4805L16.5947 20.9702C17.4868 21.4534 18.4853 21.7065 19.4998 21.7065C20.5143 21.7065 21.5129 21.4534 22.4049 20.9702Z" fill="#FEB593"/>
<g id="Group_3">
<path id="Vector_17" fill-rule="evenodd" clip-rule="evenodd" d="M26.345 37.9998H25.4546V32.4345C25.4546 32.3164 25.5015 32.2032 25.585 32.1197C25.6685 32.0362 25.7817 31.9893 25.8998 31.9893C26.0179 31.9893 26.1311 32.0362 26.2146 32.1197C26.2981 32.2032 26.345 32.3164 26.345 32.4345V37.9998Z" fill="#334562"/>
<path id="Vector_18" fill-rule="evenodd" clip-rule="evenodd" d="M25.8999 32.8799C25.6353 32.8799 25.3734 32.8278 25.1289 32.7265C24.8845 32.6253 24.6624 32.4769 24.4753 32.2898C24.2883 32.1027 24.1399 31.8806 24.0386 31.6362C23.9374 31.3918 23.8853 31.1298 23.8853 30.8652C23.8853 30.6007 23.9374 30.3387 24.0386 30.0943C24.1399 29.8498 24.2883 29.6277 24.4753 29.4407C24.6624 29.2536 24.8845 29.1052 25.1289 29.0039C25.3734 28.9027 25.6353 28.8506 25.8999 28.8506C26.4342 28.8506 26.9466 29.0628 27.3245 29.4407C27.7023 29.8185 27.9145 30.3309 27.9145 30.8652C27.9145 31.3995 27.7023 31.912 27.3245 32.2898C26.9466 32.6676 26.4342 32.8799 25.8999 32.8799Z" fill="#334562"/>
</g>
</g>
</g>
<defs>
<clipPath id="clip0_355_1070">
<rect width="38" height="38" fill="white" transform="translate(0.5)"/>
</clipPath>
</defs>
</svg>
