<svg width="38" height="38" viewBox="0 0 38 38" fill="none" xmlns="http://www.w3.org/2000/svg">
<g id="Frame">
<g id="Group">
<path id="Vector" d="M25.6365 36.2317V22.772L23.4533 21.7492L22.8607 18.6021H15.139L14.5465 21.7492L12.4336 22.739V36.2317H25.6365Z" fill="#E2B48A"/>
<path id="Vector_2" d="M34.7223 37.7031L34.1583 30.4932C34.0665 29.318 33.6648 28.1883 32.9941 27.219C32.3234 26.2497 31.4078 25.4756 30.3405 24.9754L24.2812 22.1367V23.8901H23.5907V24.8104H13.426V22.2742L7.65922 24.9754C6.59173 25.4754 5.6759 26.2495 5.00507 27.2188C4.33425 28.1881 3.93241 29.318 3.84052 30.4932L3.27734 37.7031H34.7223Z" fill="#BAC2D3"/>
<path id="Vector_3" d="M19.9013 24.8306H16.9991L16.4463 26.1193L18.1121 28.2393L17.1436 32.8878L18.9982 36.906L21.0761 32.5841L20.2056 28.1526L21.5246 25.9839L19.9013 24.8306Z" fill="#DA2A47"/>
<path id="Vector_4" d="M34.1586 30.493C34.0667 29.3178 33.665 28.1881 32.9943 27.2188C32.3236 26.2495 31.4078 25.4753 30.3405 24.9753L24.8186 22.3877C24.3682 24.9521 23.2989 27.3022 22.1369 29.6166C21.5994 30.683 21.0928 31.7648 20.6178 32.8606C20.3527 33.4706 18.9998 37.0352 18.9998 37.0352C18.9998 37.0352 16.8065 31.5757 16.4072 30.5408C15.866 29.1371 15.4495 27.6765 14.7323 26.3486C14.6087 26.1211 14.48 25.8964 14.3463 25.6747C13.1262 25.1955 12.4989 24.1606 12.522 22.6967L7.65922 24.9753C6.59173 25.4753 5.6759 26.2494 5.00507 27.2187C4.33425 28.188 3.93241 29.3178 3.84052 30.493L3.27734 37.7029H34.7223L34.1586 30.493Z" fill="#707583"/>
<path id="Vector_5" d="M34.1586 30.493C34.0667 29.3178 33.665 28.1881 32.9943 27.2188C32.3236 26.2495 31.4078 25.4753 30.3405 24.9753L24.8186 22.3877C24.3682 24.9521 23.2989 27.3022 22.1369 29.6166C21.5994 30.683 21.0928 31.7648 20.6178 32.8606C20.3527 33.4706 18.9998 37.0352 18.9998 37.0352C18.9998 37.0352 16.8065 31.5757 16.4072 30.5408C15.866 29.1371 15.4495 27.6765 14.7323 26.3486C14.6087 26.1211 14.48 25.8964 14.3463 25.6747C13.1262 25.1955 12.4989 24.1606 12.522 22.6967L7.65922 24.9753C6.59173 25.4753 5.6759 26.2494 5.00507 27.2187C4.33425 28.188 3.93241 29.3178 3.84052 30.493L3.27734 37.7029H34.7223L34.1586 30.493Z" fill="#384868"/>
<path id="Vector_6" d="M34.7223 37.703H30.4651L29.901 30.4919C29.8083 29.3169 29.4058 28.1874 28.7347 27.2185C28.0636 26.2496 27.1477 25.4758 26.0803 24.976L24.397 24.1863C24.5686 23.5945 24.7083 22.994 24.8156 22.3872L30.3404 24.976C31.4074 25.476 32.3229 26.2499 32.9935 27.2188C33.6642 28.1878 34.066 29.3171 34.1582 30.4919L34.7223 37.703Z" fill="#2F3A5A"/>
<path id="Vector_7" d="M27.4071 14.5323C27.722 13.1865 27.3669 11.9527 26.6138 11.7764C25.8608 11.6002 24.995 12.5484 24.6801 13.8942C24.3652 15.24 24.7203 16.4739 25.4734 16.6501C26.2264 16.8263 27.0922 15.8782 27.4071 14.5323Z" fill="#E2B48A"/>
<path id="Vector_8" d="M12.4686 16.6611C13.2216 16.4848 13.5766 15.2508 13.2614 13.9051C12.9463 12.5593 12.0804 11.6113 11.3273 11.7876C10.5743 11.964 10.2193 13.1979 10.5345 14.5437C10.8497 15.8894 11.7156 16.8374 12.4686 16.6611Z" fill="#E2B48A"/>
<path id="Vector_9" d="M18.9712 21.2979C22.8782 21.2979 26.0454 16.9326 26.0454 11.5476C26.0454 6.16271 22.8782 1.79736 18.9712 1.79736C15.0642 1.79736 11.897 6.16271 11.897 11.5476C11.897 16.9326 15.0642 21.2979 18.9712 21.2979Z" fill="#F0C191"/>
<path id="Vector_10" d="M25.6013 14.9114C25.6013 14.9114 28.0995 10.4479 27.5583 6.90795C27.0171 3.36801 24.6323 2.25058 23.2153 2.25058C23.2153 2.25058 21.3029 -0.581315 16.5769 0.573826C11.8509 1.72897 9.95065 6.91864 10.8448 10.1926C11.739 13.4665 12.3351 14.9705 12.3351 14.9705C12.3351 14.9705 11.739 10.7845 12.4097 8.47337C13.0803 6.1622 15.0925 4.33731 15.8751 4.97025C16.6576 5.60318 21.6505 5.39329 22.4702 3.99056C23.547 4.77965 24.2678 5.96287 24.475 7.28172C24.7422 9.40556 25.9353 10.7097 25.8237 12.2372C25.712 13.7646 25.6013 14.9114 25.6013 14.9114Z" fill="#2F3A5A"/>
<path id="Vector_11" d="M23.2497 20.6572L18.9999 24.8099L22.7934 27.4168L24.5687 22.2657L23.2497 20.6572ZM13.4312 22.2657L15.3543 27.2965L18.9999 24.8099L14.7502 20.6572L13.4312 22.2657Z" fill="#D9E2E9"/>
<path id="Vector_12" d="M25.6749 22.7898L23.2498 20.6574L23.2447 20.6523C23.2447 20.6523 23.2005 27.0233 18.9994 36.906C14.7974 27.0233 14.7541 20.6523 14.7541 20.6523L14.7491 20.6574L12.3242 22.7898L11.897 26.3948L13.9077 26.0733L12.3999 28.3592C13.2742 30.489 19 37.139 19 37.139C19.901 36.1442 24.8609 30.402 25.6331 28.5198L24.0908 26.0733L26.3414 26.1374L25.6749 22.7898Z" fill="#43567C"/>
</g>
</g>
</svg>
