<svg width="16" height="20" viewBox="0 0 16 20" fill="none" xmlns="http://www.w3.org/2000/svg">
<path id="Vector (Stroke)" fill-rule="evenodd" clip-rule="evenodd" d="M8.00014 1.82558C5.75151 1.82558 3.61024 3.15445 2.72133 5.22059C1.9062 7.11522 2.31547 8.69635 3.2952 10.1686C4.14182 11.4408 5.37501 12.5766 6.6056 13.7099C6.84715 13.9323 7.08859 14.1547 7.32699 14.378C7.50723 14.5455 7.74852 14.6395 8.00014 14.6395C8.25204 14.6395 8.49357 14.5453 8.67388 14.3774C8.89756 14.1692 9.12387 13.9615 9.35041 13.7536C10.5973 12.6095 11.8507 11.4594 12.7064 10.1706C13.6853 8.6964 14.093 7.11276 13.2789 5.22059C12.39 3.15445 10.2488 1.82558 8.00014 1.82558ZM1.45509 4.71159C2.56178 2.13924 5.21088 0.5 8.00014 0.5C10.7894 0.5 13.4385 2.13924 14.5452 4.71159C15.5742 7.10341 15.0161 9.14629 13.8606 10.8866C12.9065 12.3235 11.5098 13.6028 10.2675 14.7407C10.0475 14.9423 9.8323 15.1394 9.62527 15.3321C9.18887 15.7384 8.60609 15.9651 8.00014 15.9651C7.39419 15.9651 6.81144 15.7384 6.37504 15.3322L6.37355 15.3308C6.15469 15.1258 5.92648 14.916 5.6929 14.7012C4.46376 13.5712 3.08606 12.3046 2.14183 10.8857C0.984893 9.14719 0.424783 7.10636 1.45509 4.71159ZM8 5.80233C7.11638 5.80233 6.40007 6.49472 6.40007 7.34884C6.40007 8.20295 7.11638 8.89535 8 8.89535C8.88362 8.89535 9.59993 8.20295 9.59993 7.34884C9.59993 6.49472 8.88362 5.80233 8 5.80233ZM5.02869 7.34884C5.02869 5.76262 6.35899 4.47674 8 4.47674C9.64101 4.47674 10.9713 5.76262 10.9713 7.34884C10.9713 8.93505 9.64101 10.2209 8 10.2209C6.35899 10.2209 5.02869 8.93505 5.02869 7.34884ZM2.70505 13.876C3.0151 14.0861 3.09017 14.4995 2.87274 14.7992C2.22693 15.6893 1.79324 16.3141 1.55679 16.8003C1.32338 17.2802 1.35742 17.4733 1.41131 17.5851C1.43252 17.629 1.45751 17.6718 1.48619 17.713C1.57637 17.8424 1.78608 17.9974 2.48424 18.0858C3.17342 18.173 4.13733 18.1744 5.51528 18.1744H10.4847C11.8627 18.1744 12.8266 18.173 13.5158 18.0858C14.2139 17.9974 14.4236 17.8424 14.5138 17.713C14.5425 17.6718 14.5675 17.629 14.5887 17.5851C14.6426 17.4733 14.6766 17.2802 14.4432 16.8003C14.2068 16.3141 13.7731 15.6893 13.1273 14.7992C12.9098 14.4995 12.9849 14.0861 13.295 13.876C13.605 13.6658 14.0326 13.7383 14.25 14.038C14.8792 14.9052 15.3879 15.6269 15.6843 16.2363C15.9837 16.852 16.1411 17.5035 15.8317 18.1451C15.78 18.2522 15.7197 18.3552 15.6513 18.4534C15.2163 19.0779 14.4846 19.3 13.6939 19.4001C12.9048 19.5 11.8503 19.5 10.538 19.5H5.46204C4.14968 19.5 3.09515 19.5 2.30613 19.4001C1.51543 19.3 0.783745 19.0779 0.348657 18.4534C0.280311 18.3552 0.219991 18.2522 0.168335 18.1451C-0.14105 17.5035 0.0162797 16.852 0.315721 16.2363C0.612119 15.6269 1.12083 14.9052 1.74995 14.038C1.96739 13.7383 2.395 13.6658 2.70505 13.876Z" fill="#E15449"/>
</svg>
