<svg width="16" height="12" viewBox="0 0 16 12" fill="none" xmlns="http://www.w3.org/2000/svg">
<path fill-rule="evenodd" clip-rule="evenodd" d="M16 0.580645C16 0.259964 15.7501 0 15.4419 0H6.91446C6.24667 0 5.62086 0.338964 5.23788 0.908093L3.15875 3.99808L1.1313 5.05268C0.437957 5.41333 0 6.15052 0 6.95698V9.09677C0 9.84504 0.58306 10.4516 1.30233 10.4516H2.30959C2.55253 11.3452 3.34228 12 4.27907 12C5.21586 12 6.00561 11.3452 6.24855 10.4516H9.75145C9.9944 11.3452 10.7842 12 11.7209 12C12.6577 12 13.4475 11.3452 13.6904 10.4516H13.7778C13.9798 10.4516 14.1792 10.4028 14.3602 10.3086L15.2801 9.83011C15.7213 9.60061 16 9.13144 16 8.61832V4.06452C16 3.98327 15.9836 3.90293 15.9519 3.82869L14.8123 1.16129H15.4419C15.7501 1.16129 16 0.901327 16 0.580645ZM13.5908 1.16129L14.7484 3.87097H10.7907V1.16129H13.5908ZM9.67442 1.16129V3.87097H4.60687L6.15234 1.57409C6.32645 1.31536 6.61093 1.16129 6.91446 1.16129H9.67442ZM3.66664 5.03226H14.8837V8.61832C14.8837 8.69157 14.8439 8.75862 14.7809 8.79141L13.861 9.26986C13.8354 9.28321 13.8068 9.29032 13.7778 9.29032H13.6904C13.4475 8.39669 12.6577 7.74194 11.7209 7.74194C10.7842 7.74194 9.9944 8.39669 9.75145 9.29032H6.24855C6.00561 8.3967 5.21586 7.74194 4.27907 7.74194C3.34228 7.74194 2.55253 8.3967 2.30959 9.29032H1.30233C1.19956 9.29032 1.11628 9.20368 1.11628 9.09677V6.95698C1.11628 6.59039 1.31535 6.25531 1.63052 6.09137L3.66664 5.03226ZM11.7209 8.90323C12.2347 8.90323 12.6512 9.33648 12.6512 9.87097C12.6512 10.4055 12.2347 10.8387 11.7209 10.8387C11.2072 10.8387 10.7907 10.4055 10.7907 9.87097C10.7907 9.33648 11.2072 8.90323 11.7209 8.90323ZM4.27907 8.90323C4.79285 8.90323 5.2093 9.33647 5.2093 9.87097C5.2093 10.4055 4.79285 10.8387 4.27907 10.8387C3.76529 10.8387 3.34884 10.4055 3.34884 9.87097C3.34884 9.33647 3.76529 8.90323 4.27907 8.90323Z" fill="#FBFBFB"/>
</svg>
