<svg width="64" height="64" viewBox="0 0 64 64" fill="none" xmlns="http://www.w3.org/2000/svg">
<rect x="0.5" y="0.5" width="63" height="63" rx="31.5" fill="white"/>
<rect x="0.5" y="0.5" width="63" height="63" rx="31.5" stroke="#D1D1D1"/>
<path d="M29.8301 18.5132C32.0021 18.4863 34.1661 18.5008 36.346 18.5545L37.9943 18.5972C39.5592 18.6452 40.8798 18.7168 41.9913 18.9065C43.5235 19.1682 44.7691 19.671 45.8211 20.7066C46.8687 21.7377 47.3777 22.9412 47.6394 24.4193C47.8919 25.8452 47.9287 27.6201 47.9766 29.8237L47.9941 30.9126C48.002 31.6379 48.002 32.3621 47.9941 33.0874L47.9766 34.1763C47.9287 36.3799 47.8919 38.1548 47.6394 39.5807C47.3777 41.0588 46.8687 42.2623 45.8211 43.2934C44.7691 44.329 43.5235 44.8318 41.9913 45.0935C40.8798 45.2832 39.5592 45.3548 37.9943 45.4028L36.346 45.4455C34.1661 45.4992 32.0021 45.5137 29.8301 45.4868L27.6543 45.4455C25.345 45.3886 23.491 45.3465 22.0091 45.0935C20.4768 44.8318 19.2312 44.329 18.1792 43.2934C17.1316 42.2623 16.6227 41.0588 16.3609 39.5807C16.1716 38.5115 16.1036 37.2464 16.0615 35.7512L16.0237 34.1763C15.9921 32.7226 15.9921 31.2774 16.0237 29.8237L16.0615 28.2488C16.1036 26.7536 16.1716 25.4885 16.3609 24.4193C16.6227 22.9412 17.1316 21.7377 18.1792 20.7066C19.2312 19.671 20.4768 19.1682 22.0091 18.9065C23.491 18.6535 25.345 18.6114 27.6543 18.5545L29.8301 18.5132ZM37.1454 29.9121C35.2206 30.9815 33.6559 31.6351 32.0002 31.6351C30.5515 31.6351 29.1727 31.1354 27.5613 30.294L26.8549 29.9121L18.4859 25.2616C18.3756 26.088 18.3287 27.0708 18.294 28.2916L18.2562 29.8693C18.2253 31.2923 18.2253 32.7077 18.2562 34.1307L18.294 35.7084C18.3355 37.1681 18.3973 38.287 18.56 39.2059C18.7677 40.3789 19.1248 41.1227 19.7606 41.7485C20.392 42.37 21.1598 42.7254 22.3913 42.9357C23.673 43.1546 25.3335 43.1993 27.7095 43.2578L29.8578 43.2977C32.0019 43.3242 34.1387 43.3108 36.2908 43.2578L37.9434 43.2136C39.4731 43.1664 40.6476 43.0999 41.609 42.9357C42.8405 42.7254 43.6084 42.37 44.2398 41.7485C44.8755 41.1227 45.2326 40.3789 45.4403 39.2059C45.6572 37.9808 45.6948 36.4002 45.7441 34.1307L45.7616 33.0646C45.7693 32.3545 45.7693 31.6455 45.7616 30.9354L45.7441 29.8693C45.7008 27.8782 45.6672 26.4173 45.513 25.2616L37.1454 29.9121ZM29.8578 20.7023L27.7095 20.7422C25.3335 20.8007 23.673 20.8454 22.3913 21.0643C21.1598 21.2746 20.392 21.63 19.7606 22.2515C19.5019 22.5062 19.2903 22.7806 19.1152 23.0952L27.9566 28.008L28.6238 28.3671C30.1066 29.1391 31.0883 29.446 32.0002 29.446C33.0422 29.446 34.1758 29.0457 36.0437 28.008L44.8837 23.0952C44.7086 22.7809 44.4983 22.506 44.2398 22.2515C43.6084 21.63 42.8405 21.2746 41.609 21.0643C40.6476 20.9001 39.4731 20.8336 37.9434 20.7864L36.2908 20.7422C34.1387 20.6892 32.0019 20.6758 29.8578 20.7023Z" fill="#DA291C"/>
</svg>
