<svg width="64" height="64" viewBox="0 0 64 64" fill="none" xmlns="http://www.w3.org/2000/svg">
<rect x="0.5" y="0.5" width="63" height="63" rx="31.5" fill="white"/>
<rect x="0.5" y="0.5" width="63" height="63" rx="31.5" stroke="#D1D1D1"/>
<path d="M19.9123 16.512C20.5593 16.0806 21.3078 15.9003 22.0532 16.0542C22.8966 16.2285 23.5689 16.7953 23.9862 17.544L25.2856 19.8752L25.9716 21.1252C26.1745 21.5087 26.3489 21.8614 26.4861 22.1891C26.7716 22.8707 26.9415 23.5431 26.864 24.2863C26.7865 25.0294 26.4816 25.652 26.0617 26.2601C25.8597 26.5526 25.6159 26.8623 25.3379 27.1961L24.4092 28.2759L21.1361 32.0359C23.7656 36.3464 27.6478 40.2298 31.9626 42.8624L35.724 39.5907L36.8039 38.662C37.1377 38.3841 37.4474 38.1402 37.7399 37.9382C38.3479 37.5183 38.9705 37.2134 39.7136 37.1359C40.4568 37.0584 41.1293 37.2284 41.8109 37.5138C42.4665 37.7884 43.2229 38.2117 44.1248 38.7143L46.456 40.0137L46.7278 40.1823C47.3401 40.6019 47.7933 41.2088 47.9458 41.9467C48.0997 42.6921 47.9194 43.4406 47.488 44.0876L47.2874 44.3594C45.2706 46.8335 42.0777 48.4376 38.6992 47.8941L38.3707 47.8345C36.4888 47.4548 34.6292 46.853 32.4742 45.7227L31.5309 45.2053C26.6956 42.4322 22.3286 38.1923 19.3673 33.4283L18.7946 32.469C17.5064 30.2228 16.7919 28.317 16.3427 26.4345L16.1654 25.6293C15.4596 22.1302 17.0864 18.7946 19.6405 16.7126L19.9123 16.512ZM39.9447 39.3567C39.7085 39.3815 39.4429 39.4755 39.0087 39.7753C38.7798 39.9334 38.5294 40.1308 38.2341 40.377L37.1891 41.2738L34.0439 44.012C35.7792 44.8669 37.2866 45.3378 38.8125 45.6456L39.2863 45.7212C41.6522 46.0063 43.99 44.8718 45.5578 42.9481L45.6843 42.7621C45.7761 42.5917 45.7741 42.4686 45.7598 42.3987C45.7441 42.3224 45.691 42.2053 45.5462 42.0848L45.3689 41.9642L43.0376 40.6648C42.092 40.1377 41.4622 39.7883 40.949 39.5733C40.4618 39.3693 40.1811 39.3321 39.9447 39.3567ZM21.6012 18.2401C21.5313 18.2259 21.4082 18.2239 21.2378 18.3157L21.0518 18.4422C18.9998 20.1146 17.8451 22.6633 18.3543 25.1874L18.5127 25.9083C18.8189 27.1941 19.2667 28.4934 19.9864 29.9546L22.7261 26.8109L23.6229 25.7659C23.8691 25.4706 24.0665 25.2201 24.2246 24.9912C24.5244 24.5571 24.6185 24.2915 24.6432 24.0552C24.6678 23.8188 24.6307 23.5381 24.4266 23.0509C24.3191 22.7943 24.178 22.5086 23.9979 22.1687L23.3351 20.9624L22.0358 18.6311C21.8775 18.3472 21.703 18.2612 21.6012 18.2401Z" fill="#DA291C"/>
</svg>
