<svg width="695" height="184" viewBox="0 0 695 184" fill="none" xmlns="http://www.w3.org/2000/svg">
<g clip-path="url(#clip0_32_1483)">
<path d="M593.5 0L626.4 15.4L552.6 164.2L512.9 182.4H589.9L604.1 154.1H647.2V172.1L624.9 182.4H694.4V0H593.5Z" fill="#DA291C"/>
<mask id="mask0_32_1483" style="mask-type:luminance" maskUnits="userSpaceOnUse" x="-74" y="-206" width="843" height="596">
<path d="M768.2 -206H-73.7V389.28H768.2V-206Z" fill="white"/>
</mask>
<g mask="url(#mask0_32_1483)">
<path d="M387.4 0H253.7L286.8 15.8C284.6 19.1506 282.789 22.7403 281.4 26.5C280.076 29.9185 279.137 33.4737 278.6 37.1L253.1 139.9C251.314 144.428 250.332 149.234 250.2 154.1C250.03 158.242 250.468 162.386 251.5 166.4L220.2 182H326.6C337.719 181.942 348.492 178.127 357.17 171.174C365.847 164.221 371.919 154.539 374.4 143.7L389.3 80.2H327.9L319.9 112.5H333.6L326.3 145.1C326.031 146.282 325.371 147.339 324.428 148.101C323.485 148.863 322.312 149.285 321.1 149.3H276.9L302.7 135.6L327.8 34.1C328.072 32.9544 328.724 31.9348 329.651 31.2082C330.577 30.4816 331.723 30.0909 332.9 30.1H347.2C348.003 30.1058 348.795 30.2942 349.515 30.6509C350.235 31.0076 350.864 31.5234 351.356 32.1592C351.847 32.795 352.187 33.5342 352.351 34.3208C352.514 35.1075 352.497 35.9211 352.3 36.7L346.6 60.8H394.1L402.3 28.6C403.812 22.8338 403.124 16.7113 400.369 11.4246C397.615 6.13787 392.992 2.06538 387.4 0Z" fill="#DA291C"/>
<path d="M408.5 0L446.8 17.6L443.4 34.6H477.2L445.9 163.9L406.6 182H489.2L526.1 35H559.8L570.3 0H408.5Z" fill="#DA291C"/>
<path d="M589.9 0L622.7 15.4L548.9 164.2L509.2 182.4H586.3L600.4 154.1H643.5V172.1L621.2 182.4H690.7V0H589.9Z" fill="#D1D1D1"/>
<path d="M383.7 0H250L283.2 15.8C280.963 19.1446 279.118 22.7347 277.7 26.5C276.423 29.9334 275.485 33.4837 274.9 37.1L249.4 139.9C247.66 144.442 246.681 149.24 246.5 154.1C246.33 158.242 246.768 162.386 247.8 166.4L216.5 182H322.9C334.019 181.942 344.792 178.127 353.47 171.174C362.147 164.221 368.219 154.539 370.7 143.7L385.6 80.2H324.2L316.2 112.5H329.9L322.6 145.1C322.331 146.282 321.671 147.339 320.728 148.101C319.785 148.863 318.612 149.285 317.4 149.3H273.3L299.1 135.6L324.1 34.1C324.392 32.9463 325.063 31.9243 326.007 31.1987C326.95 30.4731 328.11 30.0861 329.3 30.1H343.5C344.306 30.1097 345.099 30.2995 345.822 30.6555C346.544 31.0116 347.178 31.5249 347.677 32.1577C348.175 32.7905 348.526 33.5269 348.703 34.3129C348.88 35.0989 348.879 35.9145 348.7 36.7L342.9 60.8H390.4L398.6 28.6C400.112 22.8338 399.424 16.7113 396.669 11.4246C393.915 6.13787 389.292 2.06538 383.7 0Z" fill="#D1D1D1"/>
<path d="M404.8 0L443.1 17.6L439.7 34.6H473.6L442.2 163.9L402.9 182H485.6L522.4 35H556.2L566.6 0H404.8Z" fill="#D1D1D1"/>
<path d="M587.1 0L619.9 15.4L546.2 164.2L506.4 182.4H583.5L597.7 154.1H640.7V172.1L618.4 182.4H688V0H587.1Z" fill="#1E22AA"/>
<path d="M594.1 119.6H644.6V53.8L618.4 106L594.1 117.6V119.6Z" fill="#DA291C"/>
<path d="M380.9 0H247.2L280.4 15.8C278.163 19.1446 276.318 22.7347 274.9 26.5C273.623 29.9334 272.685 33.4837 272.1 37.1L246.6 139.9C244.901 144.45 243.956 149.246 243.8 154.1C243.654 158.235 244.058 162.371 245 166.4L213.7 182H320.2C331.307 181.937 342.065 178.118 350.726 171.165C359.387 164.211 365.439 154.531 367.9 143.7L382.9 80.2H321.5L313.5 112.5H327.2L319.8 145.1C319.551 146.274 318.911 147.329 317.984 148.092C317.058 148.855 315.9 149.281 314.7 149.3H270.5L296.3 135.6L321.4 34.1C321.655 32.9455 322.303 31.9153 323.233 31.1856C324.163 30.456 325.318 30.0723 326.5 30.1H340.8C341.603 30.1058 342.395 30.2942 343.115 30.6509C343.835 31.0076 344.464 31.5234 344.956 32.1592C345.447 32.795 345.787 33.5342 345.951 34.3208C346.114 35.1075 346.097 35.9211 345.9 36.7L340.1 60.8H387.6L395.8 28.6C397.312 22.8338 396.624 16.7113 393.869 11.4246C391.115 6.13787 386.492 2.06538 380.9 0Z" fill="#1E22AA"/>
<path d="M402 0L440.4 17.6L437 34.6H470.8L439.4 163.9L400.1 182H482.8L519.7 35H553.4L563.8 0H402Z" fill="#1E22AA"/>
<path d="M37.5 0.5L37.1 0H0L67.4 91.7L0 183.4H37.1L105.7 91.7L37.5 0.5Z" fill="#1E22AA"/>
<path d="M94.8999 0.5L94.4999 0H57.3999L124.8 91.7L57.3999 183.4H94.4999L163.1 91.7L94.8999 0.5Z" fill="#D1D1D1"/>
<path d="M152.3 0.5L151.9 0H114.8L182.2 91.7L114.9 183.4H151.9L220.5 91.7L152.3 0.5Z" fill="#DA291C"/>
</g>
</g>
<defs>
<clipPath id="clip0_32_1483">
<rect width="694.4" height="183.4" fill="white"/>
</clipPath>
</defs>
</svg>
