<svg width="100" height="100" viewBox="0 0 100 100" fill="none" xmlns="http://www.w3.org/2000/svg">
<path fill-rule="evenodd" clip-rule="evenodd" d="M50.0191 93.7494C74.1772 93.7494 93.75 74.1766 93.75 50.0191C93.75 25.8228 74.1772 6.25 50.0191 6.25C25.8613 6.25 6.25 25.8228 6.25 50.0191C6.25 74.1766 25.8613 93.7494 50.0191 93.7494Z" fill="url(#paint0_linear_479_9040)"/>
<path fill-rule="evenodd" clip-rule="evenodd" d="M26.6328 73.0974C29.3894 75.853 32.5943 78.1199 36.1109 79.8008L26.6328 58.0711L18.7343 39.9624C17.6941 43.1218 17.1546 46.5124 17.1546 50.0183C17.1546 58.9958 20.7764 67.1639 26.6328 73.0974ZM73.4065 81.4968C83.0002 74.3686 89.2418 62.9252 89.2418 50.0183C89.2418 37.1111 83.0002 25.6681 73.4065 18.5017C66.8565 13.647 58.7659 10.7573 50.0199 10.7573C41.2737 10.7573 33.1827 13.647 26.6328 18.5017C17.0391 25.6681 10.7974 37.1111 10.7974 50.0183C10.7974 62.9252 17.0391 74.3686 26.6328 81.4968C33.1827 86.3508 41.2737 89.2411 50.0199 89.2411C58.7659 89.2411 66.8565 86.3514 73.4065 81.4968ZM73.4065 26.9395C74.5743 28.1084 75.644 29.3713 76.6049 30.7154L73.4065 38.113L61.3474 65.8152L55.1059 51.598H44.934L38.6924 65.8152L26.6328 38.113L23.4349 30.7154C24.3955 29.3712 25.465 28.1083 26.6328 26.9395C28.6336 24.8967 30.9017 23.134 33.3752 21.6996L44.7799 48.2461H55.2593L66.664 21.6996C69.1374 23.134 71.4056 24.8967 73.4065 26.9395ZM73.4065 58.0711L81.3049 39.9624C82.3459 43.1218 82.8852 46.5124 82.8852 50.0183C82.8852 58.9952 79.2634 67.1639 73.4065 73.0974C70.6502 75.853 67.4452 78.1199 63.929 79.8008L73.4065 58.0711ZM50.0199 60.6139L59.1902 81.5352C56.2115 82.4068 53.1237 82.8477 50.0199 82.8452C46.9165 82.8477 43.8287 82.4068 40.8499 81.5352L50.0199 60.6139ZM50.0199 40.0393L59.4599 18.5402C56.4927 17.6155 53.2949 17.1532 50.0199 17.1532C46.7449 17.1532 43.5856 17.6155 40.5802 18.5402L50.0199 40.0393Z" fill="white"/>
<defs>
<linearGradient id="paint0_linear_479_9040" x1="6.26347" y1="6.26344" x2="93.7359" y2="93.7359" gradientUnits="userSpaceOnUse">
<stop stop-color="#2088FA"/>
<stop offset="1" stop-color="#032B5C"/>
</linearGradient>
</defs>
</svg>
