<svg width="100" height="100" viewBox="0 0 100 100" fill="none" xmlns="http://www.w3.org/2000/svg">
<path fill-rule="evenodd" clip-rule="evenodd" d="M71.3264 83.582C65.6726 88.7336 60.8048 91.5096 50.5515 96.8889C41.0062 92.5482 34.7766 88.2692 29.3739 84.053C21.908 78.241 16.5447 68.8027 16.0799 63.0145L12.355 7.91948C37.5884 1.36041 64.4281 1.50982 87.645 8.36045L83.8656 62.8968C83.3847 67.8351 78.9667 77.439 71.3264 83.582Z" fill="#EDC95E" stroke="black" stroke-width="0.513084" stroke-miterlimit="2.613"/>
<path fill-rule="evenodd" clip-rule="evenodd" d="M79.5421 61.0908L82.9526 12.3898C62.9719 6.02632 39.038 5.93242 16.9863 11.7211L20.4674 61.0591C20.8295 66.1863 24.5233 74.0278 31.6038 80.0365C35.8646 83.655 44.2125 89.7275 50.3783 92.0548C57.4821 88.4606 63.941 83.9922 69.0599 79.5815C75.4084 73.8001 79.1572 66.6107 79.5421 61.0908Z" fill="#EDC95E" stroke="black" stroke-width="0.513084" stroke-miterlimit="2.613"/>
<path fill-rule="evenodd" clip-rule="evenodd" d="M68.2414 78.2958C63.3342 82.527 56.7269 87.2693 50.3784 90.298C44.7086 88.544 36.3285 82.0783 32.2965 78.6019C25.2638 72.5305 22.4047 66.1753 21.9721 60.1666L18.5532 13.0708C39.5497 7.55712 62.4673 7.55712 81.5105 13.6218L78.1322 60.0888C77.6445 66.2692 74.7699 72.1766 68.2414 78.2958Z" fill="#EDC95E" stroke="black" stroke-width="0.513084" stroke-miterlimit="2.613"/>
<path d="M20.123 13.9855L20.8001 22.1025ZM20.8001 22.1025C40.8435 17.0931 61.8395 17.5958 79.2688 22.8662ZM79.2688 22.8662L80.0164 14.6075ZM80.0164 14.6075C61.9578 9.07101 40.0327 8.77115 20.123 13.9855Z" stroke="black" stroke-width="0.513084" stroke-miterlimit="2.613"/>
<path fill-rule="evenodd" clip-rule="evenodd" d="M69.9656 16.9981L65.4454 16.2515L65.2711 18.3744L63.7992 18.155L64.1458 12.523L65.6503 12.743L65.4921 14.9063L70.0761 15.6456L70.225 13.4822L71.7611 13.7738L71.2963 19.4208L69.8006 19.1453L69.9656 16.9981ZM48.1484 15.0879C47.5974 15.0879 47.1564 14.9385 46.8649 14.4508C46.6133 14.0498 46.6133 12.744 46.8649 12.3113C47.1404 11.8081 47.6363 11.6665 48.0462 11.6665L54.4563 11.6748L54.4729 13.0584L48.4088 13.0506C48.1095 13.0506 48.1017 13.7193 48.4321 13.7193H53.2123C53.7715 13.7193 54.268 14.0581 54.4252 14.4975C54.5985 14.9701 54.5668 16.0399 54.4252 16.4798C54.2914 16.9208 53.7871 17.1636 53.1568 17.1636H46.8332L46.8249 15.7483H52.4559C52.539 15.7417 52.6166 15.704 52.6732 15.6428C52.7298 15.5815 52.7612 15.5012 52.7612 15.4178C52.7612 15.3345 52.7298 15.2541 52.6732 15.1929C52.6166 15.1316 52.539 15.094 52.4559 15.0874L48.1484 15.0879ZM44.4401 15.6503C44.4386 15.5798 44.4231 15.5103 44.3945 15.4459C44.3659 15.3815 44.3248 15.3234 44.2735 15.2751C44.2222 15.2267 44.1618 15.1891 44.0958 15.1643C44.0298 15.1396 43.9595 15.1282 43.8891 15.1309L39.6361 15.4381L39.7227 17.5454L38.3448 17.687L38.0532 12.1266L44.3856 11.6545C45.2048 11.5923 45.6852 12.205 45.7241 12.7165C45.7713 13.3219 45.7951 14.1006 45.3225 14.4233C45.7163 14.7144 45.819 15.147 45.8268 15.7525L45.8429 17.1755L44.4644 17.231L44.4401 15.6503Z" fill="black"/>
<path fill-rule="evenodd" clip-rule="evenodd" d="M43.5364 13.8454C44.0796 13.8138 44.0324 12.9723 43.5364 13.0195L39.4883 13.3261L39.5355 14.0965L43.5364 13.8454Z" fill="#EDC95E"/>
<path fill-rule="evenodd" clip-rule="evenodd" d="M30.2746 13.1066C31.5742 12.8 34.2361 12.3757 35.6301 12.2729C36.2677 12.2263 36.7641 12.5562 36.8508 13.0522C37.0557 14.1925 37.1818 15.3717 37.0396 16.9535C37.0002 17.4095 36.6064 17.7711 36.0866 17.8816C34.2988 18.2748 32.2906 18.487 30.8017 18.6287C30.4235 18.6681 29.8253 18.3693 29.7231 17.8972C29.4632 16.7486 29.3683 15.1439 29.4476 14.0425C29.4793 13.6343 29.8575 13.2016 30.2746 13.1066Z" fill="black"/>
<path fill-rule="evenodd" clip-rule="evenodd" d="M35.3327 16.4944C35.5137 16.4545 35.5926 16.2584 35.6087 16.1167C35.6714 15.6841 35.6165 14.551 35.5137 14.1739C35.4826 14.0244 35.3565 13.9295 35.0733 13.9534C34.3013 14.0011 32.2614 14.2916 31.2534 14.5116C30.9857 14.5749 30.883 14.7321 30.8674 14.8737C30.8197 15.2431 30.9302 16.2578 31.0246 16.8238C31.0485 16.9582 31.2218 17.0521 31.3551 17.0443C32.718 16.9349 34.3252 16.7149 35.3327 16.4944Z" fill="#EDC95E"/>
<path fill-rule="evenodd" clip-rule="evenodd" d="M57.6659 13.3412C57.3671 13.3334 57.1622 13.5145 57.1388 13.6717C57.0677 14.136 57.0434 14.7331 57.0434 15.5118C57.0434 15.614 57.2166 15.8973 57.3666 15.9206C58.7211 16.11 61.3519 16.346 62.7853 16.4399L62.6982 17.8946C60.8165 17.8085 58.8477 17.5092 56.8078 17.3681C56.1381 17.3203 55.6499 16.9592 55.6255 16.3144C55.5861 15.2524 55.6499 13.6478 55.8392 12.7119C55.9648 12.1381 56.5163 11.8388 57.1383 11.8549C59.0199 11.9259 60.5167 12.0914 62.9819 12.4214L62.8875 13.8688C61.6917 13.7666 59.423 13.4123 57.6659 13.3412ZM26.8482 13.7635C28.7542 13.3153 29.0453 16.6973 27.4541 17.0905L23.0122 18.1997L23.2249 20.3859L21.831 20.7552L21.3345 15.061L26.8482 13.7635Z" fill="black"/>
<path fill-rule="evenodd" clip-rule="evenodd" d="M26.8248 15.9788C27.2814 15.8761 27.2186 15.0585 26.7299 15.1607L22.7212 16.1282L22.8156 16.9697L26.8248 15.9788Z" fill="#EDC95E"/>
<path fill-rule="evenodd" clip-rule="evenodd" d="M73.9564 17.8422L73.862 18.7547L78.2645 19.8639L78.1462 21.1376L72.2397 19.7462L72.7513 14.012L78.6971 15.4511L78.5638 16.788L74.1375 15.7188L74.0503 16.6863L78.445 17.7561L78.3345 18.8886L73.9564 17.8422Z" fill="black"/>
<path d="M38.2049 42.8277V38.0538L38.2101 36.0409L38.2126 35.0656L49.5295 35.0573L49.5223 19.5947M49.5223 19.5947C40.7168 19.5947 31.0699 20.4279 20.8389 23.2838ZM20.8389 23.2838L22.9493 52.3289H38.2043L38.2049 42.8277" stroke="black" stroke-width="0.513084" stroke-miterlimit="2.613"/>
<path fill-rule="evenodd" clip-rule="evenodd" d="M38.1885 37.5894C38.1885 37.4872 36.9361 37.3923 36.3136 37.4706C34.6597 37.6672 30.5249 38.9653 28.7766 40.1688C28.7377 40.271 28.745 40.8448 28.6272 41.1125C28.525 41.3558 28.2651 41.608 28.013 41.718C27.5637 41.9141 27.0438 41.3169 26.8156 41.4036C26.579 41.4897 26.0753 41.6946 25.5316 41.3091C25.2877 41.1364 25.1622 40.6487 25.2483 40.2866C25.3272 40.0267 25.5477 39.8223 25.7215 39.6573C25.8792 39.5001 25.7681 38.8947 26.3352 38.5326C26.7289 38.2815 27.2726 38.4864 27.6903 38.7059C27.7847 38.6742 27.848 38.6353 27.9185 38.5725C27.973 38.4065 28.0602 37.9033 28.139 37.51C28.234 37.0852 28.2656 36.8097 28.3911 36.417C28.7061 35.4655 29.4619 34.0969 30.25 33.381C30.872 32.8306 31.8406 32.3901 32.557 32.4373C32.486 32.5468 31.5962 33.3416 31.3358 33.6959C30.7216 34.513 30.155 35.7716 29.8873 36.8413C29.7924 37.2029 29.7924 37.3373 29.8557 37.5728C30.4383 37.3129 31.1942 37.0618 31.6357 36.9197C31.8089 36.5347 31.9034 36.0937 32.0533 35.7404C32.2893 35.1895 32.4398 34.9534 32.6831 34.5685C33.384 33.4832 34.8646 32.4134 35.9593 32.4373C35.5966 32.7517 34.8408 33.5382 34.5419 34.0098C34.2981 34.403 34.0693 34.8279 33.896 35.2684C33.7466 35.6616 33.6994 35.9526 33.66 36.2748C34.227 36.1103 34.7863 35.9921 35.1484 35.9682C35.3927 35.8344 35.4711 35.575 35.6055 35.3311C36.0226 34.5524 36.8412 33.6793 37.3616 33.3966C37.7787 33.1683 38.3929 32.9478 38.8339 33.0899C38.3613 33.4438 37.8653 34.0092 37.6448 34.348C37.4166 34.7096 37.0461 35.41 37.0617 35.7404C37.4482 35.7716 37.9509 35.7513 38.1719 35.6964L38.1885 37.5894Z" fill="black"/>
<path fill-rule="evenodd" clip-rule="evenodd" d="M33.1737 24.8507C33.7724 24.0175 35.3469 22.7594 36.5603 22.83C35.8989 23.4038 35.3158 24.0408 34.9064 24.7174C34.3705 25.59 33.9373 26.6841 33.8434 27.525C34.2445 27.3756 35.1897 27.1085 35.7334 26.9902C36.2138 25.9443 36.8441 24.7879 37.6239 24.1664C38.1826 23.7182 38.9857 23.3327 39.7343 23.4193C39.561 23.6632 39.2773 23.852 39.0645 24.0491C38.678 24.3869 38.4109 24.8434 38.1982 25.3072C38.0405 25.6532 37.7728 26.6914 37.765 26.7391C38.3081 26.7313 39.2695 26.7936 39.4739 26.8568C40.112 26.0231 41.506 24.8123 43.176 25.0872C42.4512 25.4805 41.1283 26.6286 41.2071 27.2579C42.2935 27.9582 43.9158 29.4285 43.9868 30.7888C43.2465 30.0184 42.0258 29.2552 41.4116 29.043C39.9387 28.5237 38.1826 28.4532 36.7175 28.7203C33.6619 29.2946 30.9605 30.616 28.3697 32.1656C28.3069 32.5827 28.0781 33.2115 27.8893 33.4237C27.7004 33.6359 27.4167 33.8408 27.1101 33.8885C26.7241 33.9508 26.3303 33.7941 25.9993 33.6208C25.7866 33.5026 25.2274 33.6525 24.8735 33.4626C24.6292 33.3371 24.251 32.9832 24.3537 32.425C24.4404 31.9296 24.9363 31.6308 25.0069 31.1587C25.1096 30.4671 25.6128 30.1672 25.8733 30.1211C26.1565 30.0656 26.4481 30.1605 26.708 30.2777C26.818 30.3327 26.9357 30.4277 27.039 30.4593C27.1412 30.4277 27.2906 30.3016 27.3777 30.2627C27.4011 30.1833 27.661 28.7447 27.8026 28.1154C27.9443 27.4861 28.1886 26.9507 28.3935 26.3619C29.0078 24.6162 30.906 22.8539 32.4261 22.9483C32.3472 23.0588 31.8585 23.4126 31.1815 24.1986C30.0869 25.481 29.8109 26.8418 29.4016 29.1774C30.2441 28.7842 30.9766 28.5014 31.7403 28.2254C31.9218 27.5022 32.1657 26.7941 32.465 26.1098C32.6621 25.6693 32.8982 25.2361 33.1737 24.8507Z" fill="black"/>
<path fill-rule="evenodd" clip-rule="evenodd" d="M79.0728 26.7847L50.9253 26.809L50.9486 35.0827L78.4425 35.0672L79.0728 26.7847Z" fill="#CA3132"/>
<path fill-rule="evenodd" clip-rule="evenodd" d="M57.3945 63.7951C57.1979 64.5884 57.1029 65.9258 57.119 65.9585C57.5994 65.7608 58.0482 65.5876 58.4425 65.4703C58.4731 65.4226 59.0334 64.2039 59.2855 63.8735C59.8754 62.9614 60.6707 62.1822 61.6393 61.6634C62.2462 61.3563 62.986 61.0736 63.6402 61.3179C62.7811 61.7262 62.1124 62.466 61.7098 62.8904C61.3399 63.2836 60.9062 63.8652 60.7096 64.4628C60.6779 64.565 60.6468 64.7777 60.6468 64.7777C61.0478 64.6522 62.3318 64.4628 62.8677 64.3917C62.9305 64.3834 63.0955 64.0301 63.2216 63.8569C63.3798 63.6452 63.4737 63.5114 63.7263 63.2286C64.3728 62.5282 65.4669 61.7807 66.5299 61.9456C65.9473 62.3155 65.3087 62.9054 64.7971 63.8335C64.7261 63.9752 64.6322 64.1718 64.6716 64.2579C64.8288 64.2901 65.609 64.274 66.0811 64.33C66.6243 63.9918 67.1996 63.6919 67.8217 63.5591C68.522 63.4009 69.4356 63.5274 69.7988 63.8569C69.3734 63.8335 68.9708 63.9124 68.5859 64.0618C68.3649 64.149 67.9244 64.3534 67.7579 64.6361C68.1765 64.7539 68.8613 65.2026 69.294 65.5642C69.5928 65.8153 69.9555 66.1774 70.1837 66.5084C70.7591 67.2866 70.8768 68.6858 70.5697 69.1034C70.4836 68.8591 70.3881 68.6163 70.2558 68.387C69.9793 67.9237 69.5456 67.4204 69.1757 67.1444C67.3885 65.7847 64.8127 65.7136 62.7111 66.1375C60.9062 66.5084 57.6539 67.1844 55.5279 68.6941C55.5824 68.9628 55.4164 69.4095 55.173 69.5838C54.8498 69.8188 54.3928 69.4966 54.1567 69.6232C53.8346 69.7882 53.4325 69.685 53.267 69.6149C52.9832 69.4961 52.7949 69.2056 52.7705 68.8674C52.7472 68.5997 53.0066 68.2775 53.0621 67.987C53.0865 67.8682 52.9599 67.2866 53.4564 66.9878C53.5508 66.9333 53.8346 66.8306 54.0307 66.8622C54.2273 66.9017 54.3855 67.0272 54.5816 67.0588C54.8491 66.9639 55.1054 66.8399 55.3458 66.6889C55.504 66.083 55.6213 65.3826 55.7007 64.7616L57.3945 63.7951Z" fill="black"/>
<path d="M76.5786 60.0345C76.0676 67.0974 72.7199 71.9973 67.7509 76.8356C64.6786 79.8321 57.4654 85.2903 50.8892 88.624L50.8809 65.997C52.4476 65.9342 54.2904 65.4621 55.7009 64.7618L57.3881 63.7771C60.8909 61.0145 62.1039 57.2351 62.1039 53.5854M76.5781 60.0351L77.043 53.602L62.1033 53.586" stroke="black" stroke-width="0.513084" stroke-miterlimit="2.613"/>
<path fill-rule="evenodd" clip-rule="evenodd" d="M57.6657 72.1663C57.9028 71.8047 58.1866 71.2766 58.3272 71.0489C58.8237 70.2546 59.5401 69.6647 60.0293 69.437C60.6981 69.1148 61.7771 68.9255 62.2575 69.1615C61.7294 69.2881 61.3284 69.5314 60.9574 69.7908C60.5793 70.0502 59.8389 70.7272 59.6501 71.01C59.4384 71.3249 59.2952 71.6076 59.2408 71.7565C59.8384 71.6237 60.5559 71.5132 60.9258 71.5132C61.1945 71.1749 61.9027 70.3651 62.4303 69.9874C62.8557 69.6886 63.7615 69.3898 64.328 69.6336C63.7849 69.8069 62.8246 70.5617 62.4697 71.1039C62.3909 71.2304 62.3198 71.3643 62.3047 71.4343C62.5958 71.4587 63.1467 71.5132 63.4466 71.5531C63.4772 71.5531 64.2969 71.0494 64.6668 70.9472C65.1482 70.8133 65.9352 70.6411 66.4307 71.1682C66.0691 71.1755 65.7293 71.2066 65.4621 71.3254C65.0772 71.4987 64.9112 71.6242 64.7379 71.8675C65.4938 72.2685 66.2823 72.6862 66.7471 73.426C66.9111 73.6854 67.1637 74.2986 67.0216 74.6996C66.7855 74.4008 66.4623 74.1097 66.2029 73.9598C65.833 73.7471 65.5648 73.5432 65.1156 73.3699C63.706 72.8428 61.8627 72.7012 60.3899 72.8978C58.4849 73.1422 56.1451 74.0864 54.9488 74.904C55.0277 75.2729 54.8466 75.7055 54.6339 75.8077C54.1852 76.0355 53.7525 75.6505 53.6731 75.6739C53.5543 75.7133 53.1917 75.8389 52.9323 75.7294C52.6729 75.6272 52.5079 75.1701 52.6101 74.8791C52.6879 74.6591 53.0034 74.3442 53.0034 74.3442C52.9556 73.8649 53.271 73.5743 53.7048 73.5183C53.9491 73.495 54.1224 73.6843 54.319 73.7232C54.5006 73.6371 54.6261 73.5743 54.7211 73.5266C54.8316 73.1334 54.9965 72.7323 55.106 72.4019C55.2876 71.8437 55.5558 71.3482 55.8946 70.8294C56.3817 70.0818 57.2491 69.3742 58.281 69.3581C57.9661 69.6025 57.7845 69.7363 57.5879 69.9802C57.2497 70.4045 56.9892 70.79 56.7532 71.2455C56.5405 71.6465 56.3438 72.2447 56.3112 72.7712C56.6899 72.5912 57.2725 72.3235 57.6657 72.1663ZM57.5137 76.4204C57.7814 76.311 58.0647 76.2321 58.3485 76.2632C57.687 76.6876 57.08 77.3091 56.9145 78.0473C56.8995 78.1272 56.8995 78.2834 56.97 78.3311C57.1583 78.2834 57.6387 78.1812 57.7653 78.1195C57.8442 77.9545 58.0408 77.6951 58.1747 77.5218C58.6468 76.8925 59.3248 76.2632 60.2607 76.4993C59.6475 76.7737 59.2932 77.1597 59.0244 77.6474C58.9777 77.7345 58.9456 77.8985 59.0083 77.8985C59.1666 77.8985 59.7653 77.8751 59.8514 77.8751C60.1269 77.6308 60.9305 77.167 61.4819 77.3402C61.2071 77.4698 60.9547 77.6425 60.7344 77.8518C60.6799 77.9145 60.6078 77.9934 60.5927 78.0878C61.0809 78.3311 61.5136 78.6066 61.9162 78.9532C62.1289 79.1337 62.436 79.4719 62.6243 80.0535C62.1522 79.6452 60.6078 78.9137 59.7658 78.8743C59.2148 78.851 58.5295 78.9532 58.183 79.0315C56.8517 79.3303 55.4806 79.9285 54.3081 80.5972C54.3154 80.825 54.2765 81.101 54.0165 81.3126C53.8433 81.4542 53.4656 81.5253 53.3234 81.3209C53.2456 81.2104 52.7325 81.3282 52.622 81.1871C52.622 81.1871 52.4882 80.9822 52.4721 80.7383C52.4571 80.4789 52.6303 80.3217 52.772 80.1879C52.8114 80.1412 52.8036 79.7007 53.1336 79.5503C53.3385 79.4559 53.5439 79.4885 53.7172 79.598C53.7883 79.5586 53.8428 79.5192 53.8894 79.4885C53.9289 78.977 54.0243 78.5049 54.2127 77.9939C54.4731 77.2697 55.3234 76.3888 56.0559 76.4204C55.5605 76.9553 55.1584 77.6951 55.0246 78.3083C54.9851 78.5049 54.9701 78.8899 54.9701 79.0714C55.1453 78.964 55.3295 78.8718 55.5205 78.796C55.5994 78.6076 55.8276 78.1355 55.9459 77.9223C56.2463 77.3719 56.915 76.6643 57.5137 76.4204Z" fill="black"/>
<path fill-rule="evenodd" clip-rule="evenodd" d="M23.7026 60.8677C23.7971 63.6043 24.9156 66.908 26.4512 69.1969H49.3615L49.3143 66.0032C46.3686 66.0032 41.8717 64.0608 40.0918 60.8843L23.7026 60.8677Z" fill="#CA3132"/>
<path d="M39.4521 53.729C39.4521 68.2795 60.7635 68.2795 60.7635 53.8789L60.7718 36.3713L39.4527 36.3635V53.7285" stroke="black" stroke-width="0.513084" stroke-miterlimit="2.613"/>
<path fill-rule="evenodd" clip-rule="evenodd" d="M46.3177 46.7566C46.5698 46.4811 46.7908 46.119 46.8375 45.8124C46.8764 45.5608 46.1683 45.5768 45.9079 45.734C45.7662 45.8207 45.6319 45.9934 45.5219 46.1511C45.443 46.2689 45.1598 46.3633 45.0181 46.2295C44.8682 46.0878 45.1364 45.844 45.1286 45.6946C45.1286 45.4435 44.6477 45.8207 44.4272 45.7185C44.2778 45.6474 44.2695 45.4202 44.3722 45.2863C44.4272 45.2147 44.5849 45.2469 44.656 45.168C44.7271 45.0892 44.7271 44.9719 44.751 44.8692C44.7826 44.7509 44.9082 44.6964 44.987 44.6098C45.2863 44.3188 45.8534 43.8233 45.9634 43.8311C46.2228 43.855 46.5932 43.9883 46.8215 43.87C46.8687 43.8472 46.9553 43.7689 46.8764 43.7211L46.2622 43.3201C46.2593 43.2568 46.2705 43.1936 46.2949 43.1352C46.3193 43.0767 46.3563 43.0243 46.4033 42.9818C46.6871 42.7302 47.1281 42.903 47.4985 42.848C47.7579 42.8086 48.0027 42.7064 48.1911 42.5253C48.2383 42.7141 48.12 42.903 48.12 43.0996C48.3566 43.3201 48.6009 43.5084 48.8292 43.7211C49.5062 44.3976 49.7978 45.3802 49.845 46.2456C49.8844 46.6466 49.8844 47.0559 49.8844 47.7246C49.9949 47.4419 50.0655 47.0243 50.0893 46.6627C50.1915 45.5929 50.026 44.6415 49.4201 43.8311C49.1736 43.4898 48.8938 43.1739 48.5848 42.8879C48.6165 42.5736 48.8847 42.0382 49.1363 42.2348C49.3018 42.3609 49.058 42.5492 49.2312 42.6597C49.4206 42.778 49.6961 42.7619 49.8138 42.738C50.0898 42.6675 50.3575 42.5969 50.6086 42.5736C50.7274 42.5653 50.9235 42.5103 50.9635 42.6285C50.9956 42.7069 50.909 42.7619 50.8218 42.7935C50.7196 42.8252 50.5625 42.8018 50.4753 42.8885C50.4042 42.959 50.3337 43.0374 50.3575 43.1396C50.3881 43.2578 50.5147 43.3206 50.6403 43.2812C51.1156 43.1501 51.6048 43.0761 52.0976 43.0607C52.358 43.0607 52.3025 43.2495 52.1764 43.3206C52.0903 43.3673 51.9554 43.4073 51.8693 43.415C51.4045 43.47 51.0579 43.5017 51.1134 43.7694C51.1528 43.9499 51.4439 43.7766 51.5066 43.91C51.5777 44.0516 51.3811 44.1304 51.3972 44.2249C51.4439 44.5232 52.0192 44.4609 52.2869 44.3976C52.4835 44.3504 52.7984 44.1932 52.8939 44.3193C52.98 44.4288 52.9089 44.602 52.7984 44.6337C52.5147 44.7125 52.0265 44.8536 51.8926 45.0114C51.7671 45.1608 51.917 45.4674 52.0659 45.4829C52.4042 45.5224 52.7751 45.5224 53.0428 45.6012C53.145 45.6323 53.2321 45.7034 53.2321 45.8134C53.2321 45.9317 53.1133 45.9711 53.0194 46.0022C52.8379 46.0572 52.5313 46.0572 52.3647 46.1278C52.3103 46.1517 52.1998 46.1911 52.2158 46.2539C52.2625 46.3721 52.4996 46.3405 52.6962 46.3638C52.8067 46.3721 53.0194 46.4583 53.0194 46.576C53.0194 46.7021 52.9089 46.741 52.7113 46.726C52.4042 46.7021 52.1214 46.741 51.9876 46.7965C51.9471 46.8121 51.7121 46.8432 51.7188 46.9542C51.7349 47.087 51.9876 47.0009 52.0493 47.1348C52.1048 47.2603 51.9315 47.3314 51.9165 47.4886C51.9165 47.5519 51.9471 47.583 52.0109 47.6069C52.2158 47.6935 52.4519 47.6852 52.6563 47.6463C52.869 47.6069 52.9479 47.8901 52.8934 47.9218C52.6169 48.0712 52.0026 47.914 51.861 48.0001C51.6644 48.1262 52.1915 48.4094 52.1759 48.4727C52.1598 48.5433 52.097 48.6138 52.0493 48.6299C51.7826 48.7321 51.4361 48.5355 51.239 48.6455C51.074 48.7477 51.1445 49.0071 51.0423 49.1414C50.9157 49.3064 50.632 49.2359 50.5064 49.3303C50.3414 49.4481 50.3331 49.7308 50.5147 49.9041C50.6564 50.0379 50.7902 50.1318 50.9718 50.2179C51.7915 50.6273 52.6418 51.0366 53.4371 50.9811C53.8464 50.9577 54.5151 50.9344 54.8861 51.0288C55.3665 51.1466 55.8536 51.5159 56.1073 51.6731C56.3112 51.7987 56.6422 51.8314 56.9026 51.737C57.0909 51.6731 57.2165 51.4532 57.1781 51.2649C57.0593 50.6356 56.0201 50.4389 56.0035 49.8096C55.9885 49.0865 55.9257 48.6932 55.6886 48.2362C55.6025 48.0634 55.5864 47.6624 55.7919 47.6074C55.9568 47.568 56.0118 47.7967 56.1457 47.7412C56.7527 47.5047 56.776 46.5454 57.4063 46.3644C57.7762 46.2622 59.0203 46.2461 58.9181 46.0889C58.6587 45.7195 58.7765 45.2946 58.9181 45.098C59.0125 44.9724 59.2729 44.8459 59.3751 44.9724C59.5168 45.1369 59.1624 45.3335 59.1868 45.5779C59.2102 45.8056 59.5406 46.2461 59.289 46.4821C59.1391 46.6232 58.0123 46.671 57.6818 47.1742C57.4769 47.4808 57.4541 47.7251 57.6979 47.7013C57.8945 47.6779 58.0595 47.4419 58.24 47.308C58.5632 47.0725 58.8237 46.9776 59.0053 47.1503C59.0997 47.237 58.9736 47.4025 58.8003 47.4492C58.6587 47.4964 58.3121 47.8668 58.406 47.9602C58.5477 48.1096 59.3352 47.4258 59.5329 47.5674C59.6351 47.6458 59.1458 48.1495 59.233 48.2834C59.3352 48.4483 59.6667 48.1889 59.7689 48.315C59.9178 48.5039 59.5085 48.8732 59.2724 49.0382C59.0919 49.1565 59.1619 49.5964 58.9025 49.7303C58.611 49.8719 58.4771 50.123 58.5082 50.1624C58.5399 50.2252 58.6105 50.2719 58.721 50.2019C59.0431 49.9969 59.4452 49.7536 59.6107 49.8169C59.7051 49.8563 59.5723 50.3041 59.4535 50.5162C59.3347 50.7289 59.9339 50.6117 59.8467 50.7917C59.7725 50.9569 59.7506 51.1408 59.784 51.3188C59.8317 51.5632 59.1386 51.6176 59.0758 51.7831C59.0047 51.9725 59.1458 52.0192 59.2174 52.0275C59.6351 52.0903 59.579 52.4752 59.4141 52.6407C59.1941 52.8617 58.8154 52.9478 58.4849 52.8928C58.2011 52.8451 57.563 52.7268 57.1859 52.4441C57.067 52.3579 56.8943 52.4207 56.8699 52.5385C56.8466 52.6723 56.9887 52.9167 57.0515 53.1211C57.1386 53.4272 57.0909 53.8132 56.9887 54.112C56.7687 54.733 56.1773 55.2518 56.0118 55.9988C55.9724 56.1965 56.0279 56.4398 56.1073 56.6292C56.2795 57.0374 56.5317 57.4234 56.8154 57.7689C56.8549 57.8794 56.9099 58.005 56.8632 58.1072C56.8004 58.2644 56.3112 58.6026 56.1701 58.7365C55.7213 59.1531 55.3353 59.6962 55.2482 60.2856C55.2165 60.4973 54.761 60.71 54.4529 60.7971C54.2251 60.8589 53.9885 60.9227 53.7992 61.0716C53.7758 61.2448 53.878 61.3948 53.9014 61.567C53.9408 61.8658 53.5631 62.0158 53.2711 62.1102C53.1328 62.1635 52.9865 62.1926 52.8384 62.1963C52.7839 62.1963 52.7673 62.1019 52.7756 62.0557C52.8617 61.6464 52.9406 61.3159 53.0978 60.9787C53.1616 60.8521 53.2638 60.7499 53.3665 60.6638L54.4923 59.7196L55.3748 58.4532C55.4526 58.3355 55.4842 58.2333 55.4842 58.1471C55.4842 57.9028 55.382 57.675 55.2087 57.5178C54.9888 57.3212 54.6656 57.2901 54.4212 57.163C54.1063 57.0068 53.6493 56.5653 53.5865 56.5337C53.4132 56.4476 53.311 56.7614 53.2877 56.943C53.2482 57.2185 53.3344 57.4779 53.3271 57.7528C53.3271 57.8794 53.311 57.9505 53.2482 58.0283C52.5084 58.4527 51.5865 58.6099 51.0434 59.2869C50.9479 59.4047 50.8628 59.5313 50.7362 59.6174C50.4281 59.8301 49.9171 59.5857 49.6883 59.9162C49.5861 60.0661 49.7044 60.2628 49.6649 60.4277C49.6411 60.5222 49.46 60.6477 49.3189 60.7188C49.1297 60.8033 48.927 60.8537 48.7202 60.8677C48.492 60.7582 48.6336 60.436 48.7119 60.2073C48.7908 59.9712 48.9013 59.7362 49.0823 59.578C49.3506 59.3429 49.6883 59.0441 49.902 58.9404C50.0826 58.8542 50.3586 58.8542 50.5785 58.7681C50.8111 58.6969 51.0315 58.5907 51.2322 58.4532C51.5554 58.2493 51.8542 57.9972 52.0358 57.6507C52.2407 57.2584 52.2174 56.7319 51.957 56.3931C51.7209 56.086 51.4454 55.7872 51.2882 55.4406C51.2011 55.2523 51.2639 54.9929 51.3987 54.8196C51.3904 54.8123 51.2965 54.7485 51.2405 54.7651C50.1147 54.8129 48.9729 54.6873 47.9254 54.2697C47.6494 54.1592 47.3662 53.8054 47.169 53.7825C46.988 53.7582 46.8775 53.9864 46.6964 54.0336C46.4049 54.1125 46.0267 54.0653 45.6884 54.0336C45.2947 53.9942 44.4755 53.8209 43.8846 53.6326C43.7902 53.6487 43.688 53.6643 43.6013 53.7198C43.4753 53.8059 43.4519 53.9942 43.4436 54.1524C43.428 54.3641 43.4908 54.5607 43.467 54.7807C43.4597 54.8912 43.3969 55.0095 43.428 55.1122C43.4597 55.2378 43.5852 55.2927 43.6719 55.3716C43.8135 55.5055 43.8374 55.7799 43.8374 55.9999C43.8374 56.2442 43.7507 56.5664 43.9557 56.7324C44.0817 56.8346 44.255 56.7002 44.4127 56.7324C44.586 56.763 44.6405 56.9757 44.6488 57.1407C44.6571 57.329 44.4993 57.7305 44.3966 57.8327C44.3256 57.9038 44.2073 57.8488 44.1211 57.8094C43.8934 57.7072 43.6802 57.5417 43.5546 57.3223C43.4996 57.2268 43.4996 57.1096 43.4441 57.0084C43.3575 56.8351 43.1998 56.7329 43.0426 56.6141C42.8537 56.4725 42.8143 56.2141 42.7827 55.9848C42.7593 55.7731 42.7988 55.5672 42.8143 55.3555C42.8549 54.9345 42.8282 54.5096 42.7355 54.0969C42.6644 53.7831 42.4916 53.4676 42.57 53.1538C42.6094 53.0038 42.7116 52.8627 42.8537 52.8C43.6174 52.7605 44.3738 52.6339 45.098 52.4057L44.6259 51.9414C44.5071 51.9414 44.4132 52.0602 44.2949 52.0602C44.1689 52.0602 43.9956 51.8796 43.9489 51.8158C43.7046 51.4542 43.5474 51.0376 43.4369 50.6133C43.3341 50.4483 43.2086 50.2817 43.0192 50.2039C42.8879 50.1465 42.7453 50.1195 42.6021 50.1251C42.2078 50.2984 41.8457 50.6366 41.8141 51.0693C41.8063 51.1798 41.8691 51.2742 41.8535 51.3831C41.8302 51.5725 41.688 51.698 41.5542 51.8319C41.4203 51.9657 41.2943 52.0996 41.2393 52.2879C41.1921 52.4451 41.2476 52.6101 41.3176 52.76C41.3653 52.8622 41.4203 52.9639 41.3809 53.0739C41.286 53.3333 40.6644 53.601 40.4834 53.601C40.4206 53.601 40.3651 53.5149 40.3418 53.4438C40.2707 53.2077 40.2868 52.9566 40.334 52.7195C40.4995 52.539 40.6255 52.3273 40.6961 52.0913C40.7905 51.7774 40.7433 51.4386 40.8932 51.1471C41.2865 50.4794 42.2945 49.1425 42.4921 48.9453C42.5788 48.8587 42.791 48.8115 42.8781 48.8665C43.3035 49.142 43.5557 49.4802 43.9645 49.6924C44.1855 49.8024 44.461 49.9679 44.6581 49.8102C44.8547 49.653 44.8864 48.5993 45.0124 48.3316C45.2391 47.8657 45.8773 47.252 46.3177 46.7566ZM54.1572 40.2053L53.9839 40.8657H53.3535L54.1732 37.7664H54.8897L55.6767 40.8424H55.0474L54.8897 40.2053H54.1572ZM52.5022 38.6572C52.5105 38.4528 52.4477 38.1856 52.2822 38.1223C52.1079 38.0596 51.9274 38.114 51.8496 38.2323C51.7147 38.4528 51.7147 38.7516 51.723 39.2071C51.723 39.4826 51.7313 39.8686 51.7858 40.0491C51.9196 40.4662 52.2739 40.4901 52.4472 40.2302C52.5344 40.1046 52.5344 39.8608 52.5261 39.6408H52.1634V39.1843H53.1009V40.8517H52.6521V40.6234C52.6438 40.6395 52.4472 40.7884 52.3523 40.8361C52.1951 40.9067 51.8963 40.9067 51.6519 40.804C51.447 40.7178 51.2509 40.4429 51.1637 40.0891C51.0776 39.7187 51.116 39.2388 51.116 38.83C51.1243 38.3978 51.3521 37.9174 51.667 37.7369C51.888 37.6108 52.2973 37.6108 52.5577 37.7052C52.8726 37.8157 53.1159 38.2717 53.0692 38.6567L52.5022 38.6572ZM41.9521 37.8137C42.2042 37.9708 42.3381 38.2619 42.2914 38.6007H41.7944C41.7944 38.2863 41.6605 38.1358 41.3933 38.1286C41.2279 38.1203 41.0229 38.3096 41.0229 38.4512C41.0146 38.8673 41.3856 38.9545 41.6372 39.0328C41.826 39.0883 42.0543 39.2061 42.1648 39.3711C42.3697 39.6694 42.3931 39.9848 42.2281 40.3936C42.1497 40.5897 41.8499 40.8258 41.5983 40.8807C41.3145 40.944 40.9679 40.9124 40.6847 40.6997C40.4564 40.5264 40.3537 40.1882 40.4009 39.8816H40.9602C40.9602 40.0315 40.9835 40.1409 41.0468 40.2359C41.094 40.2992 41.1806 40.4009 41.3306 40.4092C41.3899 40.4136 41.4495 40.405 41.5051 40.3838C41.5607 40.3627 41.6109 40.3295 41.6522 40.2867C41.6935 40.2439 41.7249 40.1925 41.7441 40.1362C41.7633 40.0799 41.7698 40.0201 41.7632 39.9609C41.7316 39.481 40.9285 39.4494 40.6525 39.1423C40.3215 38.7651 40.4248 38.1592 40.6925 37.9153C41.0624 37.5703 41.5666 37.5703 41.9521 37.8137ZM57.8546 39.8644C57.8618 39.9827 57.8707 40.3993 57.8862 40.667C57.8945 40.7453 57.9723 40.8475 57.9723 40.8553H57.3814C57.3036 40.8553 57.2953 40.7137 57.287 40.5959C57.272 40.2815 57.3031 39.534 56.996 39.534H56.6173V40.8475H56.0264V37.7799H57.0904C57.6253 37.7799 57.894 38.0871 57.894 38.5036C57.894 38.7791 57.8857 39.1013 57.5708 39.2351C57.7358 39.3929 57.8302 39.6289 57.8546 39.8644Z" fill="black"/>
<path fill-rule="evenodd" clip-rule="evenodd" d="M57.0445 38.2234H56.6025V39.0498H56.9257C57.4622 39.0498 57.4539 38.2234 57.0445 38.2234Z" fill="#EDC95E"/>
<path fill-rule="evenodd" clip-rule="evenodd" d="M43.7479 40.8609H43.157V38.2732H42.4795V37.7544H44.4327V38.2732H43.7479V40.8609ZM47.5501 40.8609V38.2732H46.8726V37.7544H48.8336V38.2732H48.1411V40.8609H47.5501ZM49.0993 37.7549H51.0603V38.2825H50.3672V40.8619H49.7763V38.2825H49.0993V37.7549ZM59.3449 38.2825V40.8702H58.754V38.2825H58.0759V37.756H60.0297V38.2825H59.3449ZM45.9777 39.9701V37.7601H46.552V39.9152C46.552 41.2049 44.6776 41.2049 44.6776 39.9546V37.7601H45.2519V39.9779C45.2524 40.4583 45.9777 40.4583 45.9777 39.9701Z" fill="black"/>
<path d="M47.3039 42.2908C47.4772 42.1419 47.721 41.9364 48.0048 41.7564C48.257 41.5909 47.9732 41.9686 47.9576 42.1258C47.9099 42.5502 47.5872 42.5974 47.2329 42.519C47.1701 42.5035 47.194 42.3852 47.3039 42.2908Z" stroke="black" stroke-width="0.513084" stroke-miterlimit="2.613"/>
<path fill-rule="evenodd" clip-rule="evenodd" d="M62.1141 52.2064L77.1569 52.1981L77.8256 43.8933L62.1141 43.9011V52.2064ZM49.4275 78.0728L33.9126 78.0411C37.1099 80.9116 44.513 86.2842 49.3803 88.4626L49.4275 78.0728Z" fill="#CA3132"/>
<path fill-rule="evenodd" clip-rule="evenodd" d="M38.2047 45.3204V46.6501C37.5905 46.194 34.7392 45.8636 32.9831 46.5479C32.5582 46.7123 31.172 47.3105 30.5417 47.8059L28.77 49.2061C28.5962 49.3467 28.5812 49.6544 28.5812 49.8904C28.5812 50.4092 27.9747 50.8025 27.6359 50.692C27.3605 50.5975 26.9823 50.5431 26.6357 50.6209C26.2653 50.6997 25.9348 50.2359 25.9032 49.9682C25.856 49.6383 26.1164 49.2061 26.1314 49.064C26.147 48.9301 26.0604 48.4036 26.5485 48.0809C26.769 47.9393 27.0767 47.947 27.2966 48.0653C27.3608 48.103 27.4371 48.1142 27.5094 48.0964C27.5882 48.0653 27.8009 47.8765 27.8559 47.8293C27.8798 47.5154 27.8326 47.0194 27.8642 46.7445C27.9348 46.2091 27.9664 45.903 28.1319 45.3832C28.2735 44.9349 28.5812 44.2823 28.8089 43.9129C29.2188 43.2442 30.0302 42.5993 30.6361 42.6543C30.3995 42.9687 30.3212 43.1342 30.1479 43.4569C29.8252 44.0468 29.5259 45.0221 29.3843 45.682C29.2893 46.1069 29.2421 46.4374 29.2655 46.8856C29.7303 46.5396 30.2185 46.2568 30.5412 46.0752C30.697 45.2949 30.9622 44.5404 31.3287 43.8341C31.7224 43.087 32.7854 42.2767 33.4786 42.3394C32.8249 43.0476 32.3606 44.0307 32.1873 44.66C32.1162 44.9111 32.0296 45.2021 32.069 45.3598C32.3284 45.2187 32.8648 45.0771 33.1242 45.0532C33.2975 44.6206 33.5335 44.1012 33.7307 43.7952C34.3449 42.851 35.3135 42.2767 35.8655 42.3005C35.4323 42.8821 35.0614 43.4097 34.7942 44.1879C34.7148 44.4156 34.6759 44.66 34.6759 44.7777C35.0142 44.7222 35.5418 44.7222 35.755 44.7222C36.3288 44.2071 36.2722 44.066 36.9052 43.5825C37.2989 43.2753 38.0309 42.8582 38.2042 42.8266V43.7562C37.9044 44.0245 37.2984 44.6003 37.1796 44.8997C37.4406 44.9951 37.9604 45.1554 38.2047 45.3204Z" fill="black"/>
<path fill-rule="evenodd" clip-rule="evenodd" d="M54.8024 39.642L54.5196 38.3989L54.252 39.642H54.8024Z" fill="#EDC95E"/>
<path fill-rule="evenodd" clip-rule="evenodd" d="M78.3598 35.8914L62.171 35.8981V43.0658L77.8633 43.085L78.3406 36.1747L78.3598 35.8914ZM79.1048 25.995L79.2485 23.6583C69.0895 20.5233 59.6963 19.5837 50.8924 19.5837L50.8883 25.956L79.1048 25.995ZM39.7042 60.0266C38.6039 57.995 38.1696 55.7637 38.1696 53.5791L23.2295 53.5951L23.6943 60.0281L39.7042 60.0266ZM49.3719 76.9884L49.3745 70.2836L27.0167 70.2592C28.4682 72.5756 30.3323 74.7032 32.5065 76.8198C32.5662 76.8785 32.6279 76.9386 32.6912 76.9993L49.3719 76.9884Z" fill="black"/>
</svg>
