<svg width="100" height="100" viewBox="0 0 100 100" fill="none" xmlns="http://www.w3.org/2000/svg">
<path fill-rule="evenodd" clip-rule="evenodd" d="M78.3424 66.9283V78.8273H73.9628V66.9283H78.3424ZM64.2697 69.5425C66.6442 69.5425 68.5907 70.9961 68.5907 72.7797C68.5907 74.5706 66.6442 76.0242 64.2697 76.0242C61.8952 76.0242 59.9492 74.5706 59.9492 72.7797C59.9492 70.9961 61.8952 69.5425 64.2697 69.5425ZM65.4245 66.9283L61.8366 62.8796H67.1889L72.1195 69.5425C72.5999 70.2236 72.9631 71.3852 73.0149 72.553C73.1908 76.1534 69.0773 79.1188 64.2697 79.1188C59.4621 79.1188 55.5244 76.1669 55.5244 72.553C55.5239 68.9329 59.0532 66.1039 65.4245 66.9283ZM44.8456 73.5916C44.8456 75.2066 46.3439 76.0242 47.5766 76.0242C48.8092 76.0242 50.4512 75.1158 50.4512 73.5916V66.9283H54.5963V73.5916C54.5963 78.2104 50.5093 79.138 47.5766 79.138C44.6506 79.138 40.479 78.2104 40.479 73.5916V66.9283H44.8456V73.5916ZM31.7005 62.8796L41.763 78.8267H36.7411L34.9699 76.0242H25.239L23.4025 78.8267H18.2773L27.6457 64.4106L26.2257 62.8796H31.7005ZM33.1801 73.1564H27.088L30.1763 68.4136L33.1801 73.1564Z" fill="#CC2229"/>
<path fill-rule="evenodd" clip-rule="evenodd" d="M77.8094 50.6434C79.042 50.7409 80.1968 50.6169 81.4035 50.3383C82.0867 50.1457 82.7546 49.9028 83.4019 49.6115C84.0261 49.295 84.6249 48.9306 85.1928 48.5215C85.7425 48.0919 86.2588 47.6213 86.7372 47.1135C87.1951 46.5872 87.6135 46.0278 87.9891 45.4399C88.443 44.6674 88.787 43.8892 89.0796 43.0395C89.2741 42.3323 89.423 41.645 89.5143 40.9244C89.5532 40.3604 89.5662 39.8147 89.5532 39.257C89.4884 38.3294 89.326 37.4796 89.0796 36.5847C88.9039 36.0841 88.7088 35.5905 88.4949 35.1051C88.0088 34.1448 87.4381 33.321 86.7372 32.5033C86.2567 31.9997 85.7405 31.5312 85.1928 31.1016C84.483 30.5876 83.7221 30.1483 82.9221 29.7906C82.2595 29.5295 81.5787 29.3171 80.8853 29.1551C79.9025 28.981 78.9046 28.9071 77.9069 28.9346C76.2328 29.0705 74.5524 29.5831 73.1382 30.5044C73.0412 30.5755 72.9312 30.6663 72.8336 30.7374C73.9496 32.4183 74.6888 34.3772 75.1366 36.3299C75.2663 36.9592 75.37 37.5896 75.4349 38.2246C75.6486 40.2416 75.4478 42.2857 74.8896 44.2322C74.416 45.8347 73.6829 47.4564 72.7164 48.8255C74.1825 49.8782 76.019 50.5132 77.8094 50.6434ZM69.7842 36.2013C69.6003 35.6989 69.3837 35.2092 69.1357 34.7352C68.5516 35.8381 68.1303 37.0122 67.9415 38.2515C67.8382 38.9581 67.7926 39.6725 67.8382 40.3926C67.9352 41.9303 68.4291 43.4737 69.1617 44.8303C69.6286 43.8898 69.9793 42.9611 70.193 41.9303C70.5499 40.1654 70.4394 38.2967 69.9066 36.5707L69.7842 36.2013ZM61.2589 50.5401C62.628 50.3129 63.8612 49.8517 65.0741 49.1897L65.5405 48.9111C65.2811 48.5604 65.0539 48.1584 64.8396 47.7817C64.1096 46.4902 63.5553 45.107 63.1914 43.6688C62.985 42.8306 62.8397 41.9786 62.7567 41.1194C62.6529 39.8222 62.7053 38.5173 62.9128 37.2326C63.3087 34.9038 64.1719 32.7176 65.5005 30.7711C64.9366 30.4012 64.3525 30.0572 63.7299 29.7978C62.6726 29.3564 61.5567 29.0581 60.4086 28.9735C58.0206 28.7919 55.6855 29.3434 53.6742 30.6414C55.1014 32.7887 55.9838 35.3059 56.3408 37.8557C56.4186 38.6277 56.4705 39.3607 56.4642 40.1389C56.4253 41.6641 56.1659 43.15 55.7115 44.6093C55.2249 46.16 54.5048 47.5815 53.6228 48.9433C55.8547 50.4099 58.6183 50.9552 61.2589 50.5401ZM50.7285 36.1043C50.5403 35.5839 50.3083 35.0804 50.0349 34.5993C49.6204 35.3972 49.2629 36.221 49.0295 37.0843C48.8022 37.9724 48.6601 38.8881 48.6601 39.809C48.6663 40.3931 48.7182 40.9835 48.8287 41.5542C49.0722 42.7381 49.4899 43.8794 50.0681 44.9408C50.4307 44.2332 50.7425 43.4939 50.9562 42.7282C51.1508 41.9557 51.294 41.2097 51.3396 40.4185C51.3848 39.341 51.3069 38.2645 51.06 37.2197C50.976 36.8498 50.8525 36.4612 50.7285 36.1043ZM44.0216 35.9227C44.4428 34.2683 45.1178 32.7373 46.0127 31.2837L46.3572 30.7716L46.409 30.6938C45.1691 29.9281 43.8395 29.3963 42.4061 29.1172C41.368 28.9159 40.2391 28.8962 39.1875 28.9808C37.7219 29.1888 36.3264 29.6432 35.0683 30.4214C34.9189 30.519 34.7565 30.629 34.6206 30.7389C35.7437 32.4198 36.4758 34.3788 36.924 36.3315C37.1512 37.3726 37.2794 38.4329 37.3069 39.4982C37.3188 40.4645 37.2494 41.4301 37.0993 42.3847C36.9907 43.008 36.8497 43.6251 36.6771 44.2337C36.2039 45.8363 35.4703 47.458 34.5038 48.8271C37.9227 51.2737 42.9186 51.2991 46.3769 48.9049C45.0534 46.9262 44.1513 44.7525 43.756 42.4039C43.4943 40.7827 43.4791 39.1313 43.7108 37.5055C43.7938 36.9732 43.8976 36.4482 44.0216 35.9227ZM31.5057 36.0259C31.3374 35.5843 31.1425 35.1533 30.9221 34.7352C30.3447 35.8381 29.9224 37.0122 29.7346 38.2515C29.6303 38.9581 29.5847 39.6725 29.6303 40.3926C29.7284 41.9303 30.2212 43.4737 30.9475 44.8303C31.2982 44.1232 31.5965 43.4291 31.8041 42.6633C32.4142 40.5415 32.2974 38.0964 31.5057 36.0259ZM24.7713 42.7282C24.5347 41.4428 24.4499 40.1341 24.5187 38.829C24.7054 35.9437 25.6621 33.1612 27.289 30.7711C26.7308 30.4012 26.1404 30.0572 25.5241 29.7978C24.4601 29.3564 23.3441 29.0581 22.2023 28.9735C21.3525 28.9086 20.5089 28.9548 19.6654 29.0581C19.1341 29.1553 18.6079 29.2788 18.0888 29.428C17.2515 29.7082 16.445 30.0734 15.6821 30.5179C15.0952 30.892 14.5377 31.3105 14.0147 31.7698C13.5055 32.2469 13.0347 32.7635 12.6067 33.3147C12.0927 34.0233 11.6555 34.7845 11.3025 35.5855C11.038 36.2475 10.8233 36.9283 10.6602 37.6222L10.5694 38.1608C10.4747 38.892 10.4379 39.6296 10.4595 40.3666C10.4921 40.9181 10.5694 41.4566 10.6607 42.0014C10.9139 43.0654 11.2516 44.0127 11.7575 44.986C12.0202 45.4399 12.304 45.8813 12.6078 46.3089C13.1525 47.0103 13.7367 47.6131 14.4049 48.1973C14.9561 48.6293 15.5372 49.0218 16.1438 49.3718C16.9417 49.7744 17.7459 50.0981 18.6091 50.3383C19.1279 50.4613 19.6732 50.5656 20.2049 50.6299C20.8015 50.6688 21.379 50.6947 21.9693 50.6621C23.5494 50.5485 25.0901 50.116 26.4984 49.3905L26.8678 49.1892L27.3284 48.9106C26.8937 48.3135 26.53 47.6131 26.1928 46.9511C25.5379 45.6111 25.0601 44.1915 24.7713 42.7282ZM88.2485 52.6153C87.6225 53.0638 86.9751 53.4817 86.3087 53.8677C85.6146 54.2186 84.9045 54.5368 84.1806 54.8212C83.4341 55.0744 82.6813 55.2948 81.9094 55.4702L81.1244 55.6129C79.7491 55.7815 78.3671 55.8531 76.9912 55.7037C75.3396 55.5193 73.7254 55.0862 72.2033 54.4191C71.1257 53.9302 70.0998 53.3346 69.1409 52.6412C68.0706 53.3873 66.9672 54.03 65.761 54.5359C64.1046 55.2177 62.3502 55.6313 60.5637 55.7612C59.3168 55.8332 58.0658 55.768 56.8331 55.5667C54.3611 55.1195 52.0327 54.1592 49.9825 52.6931C49.1068 53.3094 48.1916 53.8609 47.2121 54.3081C45.1883 55.2295 43.0468 55.7358 40.8217 55.7877C39.3556 55.8069 37.9019 55.6513 36.4742 55.2819C34.4634 54.7558 32.6269 53.8609 30.9278 52.6407C30.0319 53.2633 29.1302 53.8085 28.1507 54.2692C26.1197 55.2098 23.9013 55.742 21.6627 55.7877C20.7284 55.8007 19.8138 55.7229 18.8924 55.6124C18.1094 55.4722 17.334 55.2925 16.5692 55.0738C15.8298 54.8222 15.1024 54.5366 14.3893 54.2178C13.7018 53.8673 13.0327 53.4817 12.3847 53.0625C11.5496 52.469 10.7582 51.8164 10.0164 51.1098C9.48518 50.5524 8.98086 49.97 8.50517 49.3646C8.0598 48.7378 7.64414 48.0905 7.25955 47.4248C6.90719 46.7294 6.58473 46.0192 6.29304 45.2962C6.04049 44.5503 5.82407 43.7927 5.64456 43.026C5.50639 42.2332 5.40684 41.4342 5.34625 40.6318L5.32031 39.8141L5.34625 38.9903L5.40436 38.1794L5.50863 37.381L5.64456 36.5961L5.83288 35.8174L6.04039 35.0651L6.29304 34.3259L6.58512 33.5928L6.90937 32.8857L7.25955 32.1978L7.64864 31.5228L8.05745 30.88L8.50517 30.2513L8.97882 29.6547C9.48464 29.0648 10.0164 28.5133 10.5679 27.9805C11.1534 27.4798 11.7595 27.0037 12.3847 26.5533C13.0359 26.1394 13.7047 25.754 14.3893 25.398C15.1025 25.0773 15.8299 24.7892 16.5692 24.5347C17.3355 24.3205 18.1069 24.1321 18.8924 24.0035C20.041 23.8603 21.1953 23.7825 22.3507 23.8478C23.8168 23.9578 25.2439 24.2432 26.6198 24.7236C27.9581 25.2132 29.2324 25.8624 30.4153 26.6571L30.6809 26.8454L30.8951 27.001C33.1856 25.2947 35.93 24.225 38.7719 23.9065C40.4715 23.7446 42.1908 23.8152 43.8644 24.1788C45.36 24.5092 46.8031 25.0441 48.1527 25.7684C48.8017 26.1258 49.418 26.5279 50.0214 26.9492C51.0403 26.1834 52.1822 25.5479 53.3567 25.0551C55.6077 24.101 58.1187 23.7052 60.5648 23.8484C61.3502 23.9065 62.1481 24.017 62.9133 24.1788C64.7453 24.5793 66.4931 25.2974 68.0774 26.3007C68.4213 26.5206 68.7783 26.7614 69.1025 27.001C70.6811 25.8384 72.4541 24.9663 74.3387 24.4258C75.7659 24.017 77.2128 23.8354 78.6986 23.8157L79.5416 23.8354L80.3784 23.9008L81.1955 24.0045C81.9912 24.1423 82.7795 24.3196 83.5576 24.5358C84.3061 24.7824 85.0403 25.0706 85.7567 25.399C86.4483 25.746 87.1199 26.1317 87.7681 26.5544C88.3906 27.0016 88.9877 27.4685 89.5652 27.9816C90.1178 28.505 90.64 29.0597 91.1293 29.6427C91.6004 30.2451 92.0378 30.8731 92.4393 31.5239L92.8159 32.1988L93.1666 32.8867L93.4711 33.5938L93.7502 34.3201L93.9904 35.0662L94.1974 35.8184C94.3728 36.6044 94.5092 37.3758 94.6062 38.1805C94.6644 38.9981 94.6835 39.8152 94.6644 40.6328C94.6051 41.4357 94.5033 42.2349 94.3593 43.027L94.1777 43.8057L93.964 44.5585L93.7108 45.2972C93.4281 46.023 93.1075 46.7335 92.7505 47.4258C92.2393 48.3152 91.6625 49.1653 91.025 49.9689C90.5252 50.5546 89.9946 51.1132 89.4355 51.6426L88.8513 52.1427L88.2485 52.6153Z" fill="white"/>
<path fill-rule="evenodd" clip-rule="evenodd" d="M31.1749 48.7815C28.8133 46.4194 27.4707 43.3964 27.4707 39.8147C27.4707 36.4021 28.7485 33.3656 30.9087 31.0305C33.0306 33.3464 34.341 36.4348 34.341 39.8147C34.341 42.1632 33.8871 44.1424 32.7836 46.0428C34.4256 40.8268 33.9514 37.1543 31.9406 34.2413C32.3037 34.7539 33.29 37.628 33.1084 39.8142C33.1084 42.2343 32.3686 44.4859 31.1095 46.354L31.1749 48.7815ZM94.1918 39.8152C94.1918 48.3472 87.2302 55.2949 78.7049 55.2949C75.1367 55.2949 71.8408 54.0814 69.1483 52.0192C66.45 54.0565 63.1339 55.2949 59.5335 55.2949C55.9777 55.2949 52.6948 54.0814 49.9898 52.0773C47.2843 54.1017 44.0217 55.2949 40.4918 55.2949C36.9236 55.2949 33.6282 54.0814 30.9352 52.0192C28.2427 54.0565 24.9208 55.2949 21.3267 55.2949C12.7946 55.2949 5.8335 48.3467 5.8335 39.8152C5.8335 31.2837 12.7946 24.322 21.3267 24.322C24.9208 24.322 28.2427 25.5619 30.902 27.6376C33.5691 25.5619 36.8971 24.322 40.4918 24.322C44.086 24.322 47.3627 25.5547 50.0287 27.579C52.7453 25.4641 56.0907 24.3177 59.5335 24.322C63.1339 24.322 66.45 25.5619 69.1099 27.6376C71.7822 25.5619 75.1107 24.322 78.7049 24.322C87.5544 24.322 94.1918 31.2645 94.1918 39.8152ZM78.7049 25.9443C76.0834 25.9443 73.6706 26.6903 71.5876 27.9946C74.9935 25.2756 80.4626 24.6857 86.7436 26.8786C84.4796 25.5033 81.5598 24.6146 78.7049 24.6146C75.078 24.6146 71.7173 25.9313 69.0964 28.0724L69.1353 29.8176C66.6373 27.4239 63.2506 25.9448 59.533 25.9448C57.0183 25.9405 54.5544 26.6516 52.4287 27.9951C55.8226 25.2761 61.2984 24.6862 67.5717 26.8792C65.3071 25.5038 62.3941 24.6151 59.533 24.6151C55.9186 24.6151 52.6497 25.8348 50.0282 27.9821V29.8181C47.5375 27.4244 44.209 25.9453 40.4913 25.9453C37.9747 25.9409 35.5087 26.6519 33.3808 27.9956C36.7799 25.2766 42.2495 24.6867 48.5294 26.8797C46.2649 25.5044 43.3524 24.6157 40.4913 24.6157C36.8707 24.6157 33.5105 25.9324 30.8828 28.0734L30.9222 29.8186C28.431 27.4249 25.0438 25.9458 21.3267 25.9458C18.8082 25.9422 16.3404 26.6532 14.2099 27.9961C17.6157 25.2771 23.0848 24.6873 29.3648 26.8802C27.1008 25.5049 24.181 24.6162 21.3267 24.6162C12.957 24.6162 6.12558 31.4544 6.12558 39.8168C6.12558 42.7235 7.13722 45.9022 8.85649 48.465C5.38578 41.6206 7.13722 36.4171 9.35038 33.1799C8.50008 35.0807 7.39091 37.6238 7.44953 39.8168C7.66379 47.3626 13.6906 53.6882 21.3272 53.6882C25.2 53.6882 28.4699 52.3129 31.0395 49.7174C33.5826 52.371 36.5609 53.6882 40.4923 53.6882C42.2771 53.6886 44.0441 53.3337 45.6902 52.6442C47.3364 51.9547 48.8289 50.9444 50.0806 49.6722C52.5537 52.1505 55.7775 53.6882 59.534 53.6882C63.4141 53.6882 66.6778 52.3129 69.2463 49.7174C71.7962 52.371 74.7678 53.6882 78.7054 53.6882C86.342 53.6882 92.5701 47.4534 92.5701 39.8168C92.5696 32.231 86.2896 25.9443 78.7049 25.9443ZM48.199 48.7233C46.0614 50.5816 43.3242 51.6047 40.4918 51.6042C37.7085 51.558 36.4624 51.0719 35.2754 50.4883C38.675 53.1351 46.2271 52.11 48.1533 50.4488C46.0517 51.9606 43.4105 52.8306 40.4913 52.8306C36.9096 52.8306 33.8928 51.5201 31.5188 49.1778C33.9582 46.6928 35.1908 43.5723 35.1908 39.8157C35.1908 36.1629 33.7574 32.8224 31.428 30.3374C33.2122 28.5465 36.7415 26.7951 40.4918 26.7951C43.9044 26.7951 47.1157 28.3458 49.4519 30.5122H47.7321C45.5329 33.1461 44.3449 36.1375 44.3449 39.8157C44.3449 42.7225 45.357 45.9011 47.0701 48.464C43.5994 41.6195 45.357 36.4161 47.5635 33.1788C46.7132 35.0797 45.617 37.6295 45.6688 39.8157C45.7472 43.2091 47.2843 46.3556 49.3668 48.7949L48.199 48.7233ZM50.022 48.5029C47.8291 46.1673 46.5254 43.2278 46.5254 39.8152C46.5254 36.4026 47.855 33.2821 50.0282 30.9527C52.2409 33.2753 53.5062 36.3569 53.5062 39.8152C53.5062 42.1638 53.0517 44.1429 51.9488 46.0433C53.5902 40.8274 53.1161 37.1548 51.1052 34.2418C51.4689 34.7544 52.4551 37.6285 52.2798 39.8147C52.2798 42.3064 51.4949 44.6353 50.1647 46.5429L50.022 48.5029ZM50.6969 49.1897C52.9942 46.7374 54.3622 43.4613 54.3622 39.8147C54.3622 36.1619 53.0263 33.0092 50.6969 30.5112C53.0325 28.215 56.0171 26.7941 59.5335 26.7941C62.9269 26.7941 66.1055 28.0719 68.4219 30.2196L66.9299 30.2264C64.712 32.9295 63.5011 36.3186 63.5038 39.8152C63.5038 42.722 64.516 45.9006 66.2352 48.4634C62.7645 41.619 64.5165 36.4156 66.7286 33.1783C65.8783 35.0792 64.7749 37.616 64.8272 39.8152C64.9051 43.4483 66.1253 46.4396 68.4733 48.9501L67.1307 48.8079C65.0804 50.5407 62.4206 51.6047 59.533 51.6047C56.7497 51.5585 55.614 51.0076 54.3233 50.4888C57.7162 53.1357 65.2682 52.1105 67.195 50.4494C65.0929 51.9611 62.4522 52.8311 59.533 52.8311C55.7899 52.8301 53.1041 51.3443 50.6969 49.1897ZM52.9288 49.0735C54.784 50.4099 57.0936 51.1886 59.533 51.1886C61.9791 51.1886 64.3728 50.3643 66.2477 49.0476C64.3987 46.4848 63.2112 43.2086 63.2112 39.8152C63.2112 36.4093 64.3209 33.2499 66.2083 30.6544C64.2832 29.2092 61.9397 28.4305 59.5325 28.436C57.0931 28.436 54.8348 29.1821 52.9796 30.5117C54.7632 33.0294 55.9705 36.4612 55.9705 39.8152C55.9715 43.2086 54.7778 46.5107 52.9288 49.0735ZM50.0682 45.94C51.245 44.1143 51.8691 41.9873 51.8653 39.8152C51.8653 37.5185 51.2287 35.3712 50.0287 33.639C48.8739 35.462 48.1606 37.5642 48.1606 39.8152C48.1606 42.0211 48.9647 44.1813 50.0682 45.94ZM47.0831 49.0279C45.1889 46.394 44.0466 43.2278 44.0466 39.8152C44.0457 36.4812 45.1271 33.237 47.1282 30.5703C45.2725 29.2791 42.9047 28.436 40.498 28.436C37.6105 28.2737 34.4578 29.9281 33.9971 30.7063C35.7101 33.1783 36.8126 36.5385 36.8126 39.8152C36.8126 43.2019 35.7101 46.3426 33.815 48.9433C35.6645 50.371 37.9871 51.1886 40.4913 51.1886C42.9374 51.1886 45.2216 50.4099 47.0831 49.0279ZM30.2602 48.9501L28.9171 48.8079C26.8668 50.5407 24.2137 51.6047 21.3267 51.6047C18.5433 51.5585 17.7185 50.8971 16.1035 50.4888C19.5041 53.1357 27.0551 52.1105 28.9887 50.4494C26.8803 51.9611 24.2397 52.8311 21.3267 52.8311C14.1642 52.8311 8.30553 46.9854 8.30553 39.8162C8.30553 32.6471 14.1575 26.7956 21.3267 26.7956C24.7196 26.7956 27.8987 28.0734 30.2151 30.2212L28.7163 30.2279C26.582 32.8421 25.2907 36.1899 25.2907 39.8168C25.2907 42.7235 26.3091 45.9022 28.0222 48.465C24.5515 41.6206 26.3096 36.4171 28.5155 33.1799C27.6658 35.0807 26.569 37.6176 26.6214 39.8168C26.6982 43.4483 27.9117 46.4391 30.2602 48.9501ZM30.9544 45.8425C32.0956 44.0393 32.7007 41.9487 32.6991 39.8147C32.6991 37.5963 32.0573 35.5139 30.9347 33.7355C29.8255 35.4745 29.1122 37.5963 29.1122 39.8147C29.1122 41.9884 29.8836 44.1295 30.9544 45.8425ZM28.0414 49.0476C26.1924 46.4848 24.9981 43.2086 24.9981 39.8152C24.9981 36.4093 26.1084 33.2499 27.9957 30.6544C26.0732 29.2092 23.7318 28.4304 21.3267 28.436C15.0592 28.436 9.94699 33.5482 9.94699 39.8152C9.94699 46.0832 15.0592 51.1886 21.3267 51.1886C23.7665 51.1886 26.167 50.3643 28.0414 49.0476ZM69.3885 48.7815C67.0269 46.4194 65.6838 43.3964 65.6838 39.8147C65.6838 36.4021 66.9621 33.3656 69.1156 31.0305C71.2437 33.3464 72.5474 36.4348 72.5474 39.8147C72.5474 42.1632 72.0939 44.1424 70.9905 46.0428C72.6387 40.8268 72.1583 37.1543 70.1537 34.2413C70.5106 34.7539 71.5036 37.628 71.3215 39.8142C71.3215 42.2343 70.5822 44.4859 69.3231 46.354L69.3885 48.7815ZM69.7319 49.1773C72.165 46.6923 73.4044 43.5718 73.4044 39.8152C73.4044 36.1624 71.97 32.8219 69.6344 30.3369C71.4252 28.546 74.9483 26.7946 78.7044 26.7946C85.8673 26.7946 91.712 32.646 91.712 39.8152C91.712 42.1638 91.2648 44.1429 90.1619 46.0433C91.8033 40.8274 91.3229 37.1548 89.3188 34.2418C89.6758 34.7544 90.6682 37.6285 90.4861 39.8147C90.4861 46.3089 85.1924 51.6037 78.7044 51.6037C75.9211 51.5575 74.6755 51.0714 73.4817 50.4878C76.8819 53.1346 84.4329 52.1095 86.3602 50.4483C84.258 51.9601 81.6174 52.8301 78.7044 52.8301C75.1237 52.8301 72.1064 51.5196 69.7319 49.1773ZM72.0224 48.9433C73.8775 50.371 76.2002 51.1886 78.7049 51.1886C84.9651 51.1886 90.0783 46.0827 90.0783 39.8152C90.0783 33.5482 84.9657 28.436 78.7049 28.436C75.8178 28.2737 72.6646 29.9281 72.2044 30.7063C73.917 33.1783 75.0204 36.5385 75.0204 39.8152C75.0199 43.2013 73.917 46.3421 72.0224 48.9433ZM69.168 45.8425C70.2704 44.0843 70.9127 42.0211 70.9127 39.8147C70.9127 37.5963 70.2642 35.5139 69.1483 33.7355C68.0323 35.4745 67.3247 37.5963 67.3247 39.8147C67.3247 41.9884 68.091 44.1295 69.168 45.8425Z" fill="#D0D1D3"/>
</svg>
