<svg width="100" height="100" viewBox="0 0 100 100" fill="none" xmlns="http://www.w3.org/2000/svg">
<g clip-path="url(#clip0_479_9080)">
<path d="M50.0001 0.000976562C22.3869 0.000976562 0 22.3857 0 49.9999C0 77.6138 22.3869 99.9989 50.0001 99.9989C77.6153 99.9989 99.9999 77.6138 99.9999 49.9999C100 22.3857 77.6155 0.000976562 50.0001 0.000976562ZM50.0001 97.4987C23.7661 97.4987 2.50218 76.2331 2.50218 49.9999C2.50218 23.7671 23.7661 2.50029 50.0001 2.50029C76.234 2.50029 97.4996 23.767 97.4996 49.9999C97.4996 76.233 76.234 97.4987 50.0001 97.4987Z" fill="url(#paint0_linear_479_9080)"/>
<path d="M97.8577 49.9999C97.8577 76.4287 76.4289 97.8568 49.9999 97.8568C23.5705 97.8568 2.14404 76.4287 2.14404 49.9999C2.14404 23.5695 23.5705 2.14307 49.9999 2.14307C76.4289 2.14307 97.8577 23.5695 97.8577 49.9999Z" fill="#333333"/>
<path d="M97.4994 49.9998C97.4994 76.2331 76.2338 97.4986 49.9999 97.4986C23.7659 97.4986 2.50195 76.2331 2.50195 49.9998C2.50195 23.767 23.7659 2.50024 49.9999 2.50024C76.2338 2.50024 97.4994 23.767 97.4994 49.9998Z" fill="url(#paint1_radial_479_9080)"/>
<path d="M81.845 49.9999C81.845 67.5867 67.5876 81.8435 50.0003 81.8435C32.4127 81.8435 18.1553 67.5869 18.1553 49.9999C18.1553 32.4123 32.4127 18.1553 50.0003 18.1553C67.5875 18.1552 81.845 32.4124 81.845 49.9999Z" fill="url(#paint2_linear_479_9080)"/>
<path d="M51.2759 17.2945L54.5838 8.52706V17.2945H57.0962V4.73804H53.3205L49.8862 13.7283H49.9189L46.4848 4.73804H42.709V17.2945H45.2214V8.52706L48.5293 17.2945H51.2759ZM85.7551 22.9248L81.4626 29.1837L88.2048 25.8677L90.0335 28.0607L79.4222 33.3888L77.2781 30.7929L81.3913 24.5911L81.367 24.5605L74.5251 27.4889L72.3565 24.9105L79.5115 15.4361L81.3406 17.6303L76.8604 23.6634L83.794 20.5709L85.7551 22.9248Z" fill="black"/>
<path d="M27.762 20.5261C26.7507 19.5445 25.1903 19.2486 23.7235 20.1579C24.0043 19.4316 23.8903 18.6922 23.7419 18.2821C23.1092 17.1317 22.8874 16.9862 22.3708 16.5498C20.6843 15.1368 18.9101 16.3433 17.6427 17.8538L11.5151 25.1564L21.148 33.2381L27.6094 25.539C29.0862 23.7793 29.3142 22.0348 27.762 20.5261ZM15.3008 24.0478L18.9814 19.6616C19.4086 19.154 20.3729 19.1744 20.9913 19.6952C21.6728 20.2669 21.6749 21.0765 21.2171 21.6228L17.5775 25.9583L15.3008 24.0478ZM25.4549 24.7771L21.6179 29.3497L19.2154 27.3304L23.081 22.7225C23.5184 22.2016 24.4928 22.05 25.15 22.6013C25.8902 23.2239 25.9634 24.1709 25.4549 24.7771Z" fill="#333333"/>
<path d="M51.302 16.8094L54.61 8.04215V16.8094H57.1225V4.25293H53.3464L49.9124 13.2429H49.945L46.5109 4.25293H42.7349V16.8094H45.2474V8.04215L48.5556 16.8094H51.302Z" fill="url(#paint3_radial_479_9080)"/>
<path d="M85.7793 22.0824L81.4886 28.3415L88.2308 25.0244L90.0577 27.2185L79.448 32.5466L77.3038 29.9497L81.4174 23.7487L81.3932 23.7172L74.5491 26.6468L72.3828 24.0671L79.5378 14.5938L81.3666 16.7871L76.887 22.8201L83.8179 19.7288L85.7793 22.0824Z" fill="url(#paint4_radial_479_9080)"/>
<path d="M27.3121 20.2792C26.303 19.2976 24.7405 19.0015 23.2758 19.91C23.5544 19.1836 23.4406 18.4441 23.2922 18.0361C22.6594 16.8837 22.4397 16.7402 21.9187 16.3029C20.2323 14.889 18.4603 16.0962 17.1949 17.6081L11.0649 24.9095L20.6981 32.9912L27.1594 25.291C28.6345 23.5312 28.8643 21.7878 27.3121 20.2792ZM14.8514 23.8007L18.5316 19.4156C18.957 18.9071 19.9212 18.9274 20.5416 19.447C21.2232 20.0198 21.2253 20.8304 20.7654 21.3746L17.128 25.711L14.8514 23.8007ZM25.0072 24.53L21.1702 29.1025L18.7634 27.0832L22.6311 22.4743C23.0685 21.9545 24.0408 21.8029 24.698 22.3544C25.4425 22.9778 25.5158 23.9228 25.0072 24.53Z" fill="url(#paint5_radial_479_9080)"/>
<path d="M19.2153 50.0003C19.2153 32.9978 32.9987 19.2144 50.0003 19.2144C67.0038 19.2144 80.7852 32.9977 80.7852 50.0003C80.7852 67.0022 67.0038 80.785 50.0003 80.785C32.9986 80.785 19.2153 67.0021 19.2153 50.0003Z" fill="url(#paint6_radial_479_9080)"/>
<path d="M20.1001 50.0004C20.1001 33.487 33.4866 20.0994 50.0001 20.0994C66.5137 20.0994 79.9019 33.4869 79.9019 50.0004C79.9019 66.5138 66.5134 79.9014 50 79.9014C33.4867 79.9014 20.1001 66.5138 20.1001 50.0004Z" fill="url(#paint7_radial_479_9080)"/>
<path d="M20.0532 50.0005H50V20.0537C33.46 20.0537 20.0532 33.4606 20.0532 50.0005Z" fill="url(#paint8_radial_479_9080)"/>
<path d="M50 50.0005V79.9475C66.5398 79.9475 79.9468 66.5381 79.9468 50.0005H50Z" fill="url(#paint9_radial_479_9080)"/>
<path d="M80.1949 49.4683H50.5311V19.8044H49.469V49.4683H19.8052V50.5304H49.469V80.1952H50.5311V50.5304H80.1949V49.4683Z" fill="url(#paint10_radial_479_9080)"/>
<path d="M50.531 20.6445C66.3284 20.9254 79.076 33.6719 79.3587 49.4681H79.8873C79.605 33.379 66.6212 20.3934 50.5308 20.1125L50.531 20.6445Z" fill="url(#paint11_linear_479_9080)"/>
<path d="M20.5906 49.4643C20.8712 33.6466 33.6372 20.8817 49.455 20.5999V20.0688C33.3425 20.3506 20.3424 33.3535 20.0596 49.4642L20.5906 49.4643Z" fill="#C2D7E8"/>
<path d="M49.4688 79.3556C33.6715 79.0751 20.924 66.3276 20.6431 50.5303H20.1123C20.3949 66.6203 33.3786 79.6064 49.4689 79.8871L49.4688 79.3556Z" fill="url(#paint12_linear_479_9080)"/>
<path d="M79.359 50.5303C79.0763 66.3276 66.3285 79.0751 50.5312 79.3556V79.8871C66.6215 79.6064 79.6071 66.6205 79.8878 50.5303H79.359Z" fill="#12404F"/>
<path d="M48.9016 20.0688V48.8854H20.0859V49.454H49.4691V20.0688H48.9016Z" fill="url(#paint13_linear_479_9080)"/>
<path d="M48.8529 79.6084V51.1385H20.3242V50.5771H49.4144V79.6084H48.8529Z" fill="url(#paint14_linear_479_9080)"/>
<path d="M51.1396 79.6084V51.1385H79.6093V50.5771H50.5801V79.6084H51.1396Z" fill="url(#paint15_linear_479_9080)"/>
<path d="M51.1396 20.3232V48.7929H79.6093V49.3534H50.5801V20.3232H51.1396Z" fill="url(#paint16_linear_479_9080)"/>
</g>
<defs>
<linearGradient id="paint0_linear_479_9080" x1="-7.3192" y1="-5.38987" x2="98.7702" y2="97.1275" gradientUnits="userSpaceOnUse">
<stop stop-color="#DFF4FF"/>
<stop offset="0.098" stop-color="#D6EAF5"/>
<stop offset="0.268" stop-color="#BFD0D9"/>
<stop offset="0.488" stop-color="#98A5AC"/>
<stop offset="0.747" stop-color="#646B6E"/>
<stop offset="1" stop-color="#2B2B2B"/>
</linearGradient>
<radialGradient id="paint1_radial_479_9080" cx="0" cy="0" r="1" gradientUnits="userSpaceOnUse" gradientTransform="translate(-0.623376 3.30797) scale(71.0363 71.0363)">
<stop stop-color="white"/>
<stop offset="0.306" stop-color="#A8A8A8"/>
<stop offset="0.646" stop-color="#4F4F4F"/>
<stop offset="0.885" stop-color="#161616"/>
<stop offset="1"/>
</radialGradient>
<linearGradient id="paint2_linear_479_9080" x1="86.5068" y1="85.2769" x2="18.9389" y2="19.9841" gradientUnits="userSpaceOnUse">
<stop stop-color="#DFF4FF"/>
<stop offset="0.086" stop-color="#D6EAF5"/>
<stop offset="0.233" stop-color="#BED0D9"/>
<stop offset="0.424" stop-color="#96A4AC"/>
<stop offset="0.652" stop-color="#5F686D"/>
<stop offset="0.907" stop-color="#1A1D1E"/>
<stop offset="1"/>
</linearGradient>
<radialGradient id="paint3_radial_479_9080" cx="0" cy="0" r="1" gradientUnits="userSpaceOnUse" gradientTransform="translate(-13.3812 -3.92607) scale(170.69 170.69)">
<stop stop-color="white"/>
<stop offset="0.31" stop-color="#FDFDFD"/>
<stop offset="0.451" stop-color="#F6F6F6"/>
<stop offset="0.557" stop-color="#E9E9E9"/>
<stop offset="0.646" stop-color="#D7D7D7"/>
<stop offset="0.724" stop-color="#BFBFBF"/>
<stop offset="0.794" stop-color="#A2A2A2"/>
<stop offset="0.859" stop-color="#808080"/>
<stop offset="0.92" stop-color="#575757"/>
<stop offset="0.975" stop-color="#2B2B2B"/>
<stop offset="1" stop-color="#141414"/>
</radialGradient>
<radialGradient id="paint4_radial_479_9080" cx="0" cy="0" r="1" gradientUnits="userSpaceOnUse" gradientTransform="translate(-13.3889 -3.9261) scale(170.704 170.704)">
<stop stop-color="white"/>
<stop offset="0.31" stop-color="#FDFDFD"/>
<stop offset="0.451" stop-color="#F6F6F6"/>
<stop offset="0.557" stop-color="#E9E9E9"/>
<stop offset="0.646" stop-color="#D7D7D7"/>
<stop offset="0.724" stop-color="#BFBFBF"/>
<stop offset="0.794" stop-color="#A2A2A2"/>
<stop offset="0.859" stop-color="#808080"/>
<stop offset="0.92" stop-color="#575757"/>
<stop offset="0.975" stop-color="#2B2B2B"/>
<stop offset="1" stop-color="#141414"/>
</radialGradient>
<radialGradient id="paint5_radial_479_9080" cx="0" cy="0" r="1" gradientUnits="userSpaceOnUse" gradientTransform="translate(-13.3981 -3.97604) scale(170.835 170.835)">
<stop stop-color="white"/>
<stop offset="0.31" stop-color="#FDFDFD"/>
<stop offset="0.451" stop-color="#F6F6F6"/>
<stop offset="0.557" stop-color="#E9E9E9"/>
<stop offset="0.646" stop-color="#D7D7D7"/>
<stop offset="0.724" stop-color="#BFBFBF"/>
<stop offset="0.794" stop-color="#A2A2A2"/>
<stop offset="0.859" stop-color="#808080"/>
<stop offset="0.92" stop-color="#575757"/>
<stop offset="0.975" stop-color="#2B2B2B"/>
<stop offset="1" stop-color="#141414"/>
</radialGradient>
<radialGradient id="paint6_radial_479_9080" cx="0" cy="0" r="1" gradientUnits="userSpaceOnUse" gradientTransform="translate(17.1896 19.7377) scale(46.0402 46.0402)">
<stop stop-color="#E6E6E6"/>
<stop offset="0.104" stop-color="#D6D6D6"/>
<stop offset="0.307" stop-color="#ADADAD"/>
<stop offset="0.588" stop-color="#6C6C6C"/>
<stop offset="0.933" stop-color="#121212"/>
<stop offset="1"/>
</radialGradient>
<radialGradient id="paint7_radial_479_9080" cx="0" cy="0" r="1" gradientUnits="userSpaceOnUse" gradientTransform="translate(29.7819 25.9302) scale(66.9557 66.9557)">
<stop stop-color="white"/>
<stop offset="0.344" stop-color="#FDFDFD"/>
<stop offset="0.481" stop-color="#F6F6F6"/>
<stop offset="0.582" stop-color="#EAEAEA"/>
<stop offset="0.665" stop-color="#D8D8D8"/>
<stop offset="0.737" stop-color="#C2C2C2"/>
<stop offset="0.802" stop-color="#A6A6A6"/>
<stop offset="0.86" stop-color="#848484"/>
<stop offset="0.913" stop-color="#5F5F5F"/>
<stop offset="0.949" stop-color="#404040"/>
<stop offset="0.957" stop-color="#404040"/>
<stop offset="1"/>
</radialGradient>
<radialGradient id="paint8_radial_479_9080" cx="0" cy="0" r="1" gradientUnits="userSpaceOnUse" gradientTransform="translate(10.1229 0.549767) scale(118.579)">
<stop offset="0.169" stop-color="white"/>
<stop offset="0.196" stop-color="#E0EFF7"/>
<stop offset="0.241" stop-color="#B2D9EC"/>
<stop offset="0.287" stop-color="#8BC5E2"/>
<stop offset="0.335" stop-color="#6BB5DA"/>
<stop offset="0.384" stop-color="#52A9D4"/>
<stop offset="0.436" stop-color="#41A0CF"/>
<stop offset="0.491" stop-color="#369BCD"/>
<stop offset="0.556" stop-color="#3399CC"/>
<stop offset="0.606" stop-color="#3396C8"/>
<stop offset="0.655" stop-color="#328EBC"/>
<stop offset="0.705" stop-color="#3180A8"/>
<stop offset="0.754" stop-color="#2F6D8C"/>
<stop offset="0.803" stop-color="#2D5468"/>
<stop offset="0.851" stop-color="#2A373D"/>
<stop offset="0.871" stop-color="#292929"/>
</radialGradient>
<radialGradient id="paint9_radial_479_9080" cx="0" cy="0" r="1" gradientUnits="userSpaceOnUse" gradientTransform="translate(10.1228 0.548865) scale(118.577 118.577)">
<stop offset="0.169" stop-color="white"/>
<stop offset="0.196" stop-color="#E0EFF7"/>
<stop offset="0.241" stop-color="#B2D9EC"/>
<stop offset="0.287" stop-color="#8BC5E2"/>
<stop offset="0.335" stop-color="#6BB5DA"/>
<stop offset="0.384" stop-color="#52A9D4"/>
<stop offset="0.436" stop-color="#41A0CF"/>
<stop offset="0.491" stop-color="#369BCD"/>
<stop offset="0.556" stop-color="#3399CC"/>
<stop offset="0.606" stop-color="#3396C8"/>
<stop offset="0.655" stop-color="#328EBC"/>
<stop offset="0.705" stop-color="#3180A8"/>
<stop offset="0.754" stop-color="#2F6D8C"/>
<stop offset="0.803" stop-color="#2D5468"/>
<stop offset="0.851" stop-color="#2A373D"/>
<stop offset="0.871" stop-color="#292929"/>
</radialGradient>
<radialGradient id="paint10_radial_479_9080" cx="0" cy="0" r="1" gradientUnits="userSpaceOnUse" gradientTransform="translate(17.8183 20.3178) scale(45.1578 45.1578)">
<stop stop-color="#E6E6E6"/>
<stop offset="0.104" stop-color="#D6D6D6"/>
<stop offset="0.307" stop-color="#ADADAD"/>
<stop offset="0.588" stop-color="#6C6C6C"/>
<stop offset="0.933" stop-color="#121212"/>
<stop offset="1"/>
</radialGradient>
<linearGradient id="paint11_linear_479_9080" x1="44.0787" y1="9.04241" x2="88.1165" y2="51.5974" gradientUnits="userSpaceOnUse">
<stop stop-color="#F0F4FF"/>
<stop offset="0.109" stop-color="#EBEFF9"/>
<stop offset="0.247" stop-color="#DCE0EA"/>
<stop offset="0.403" stop-color="#C4C7CF"/>
<stop offset="0.57" stop-color="#A2A4AB"/>
<stop offset="0.747" stop-color="#76777C"/>
<stop offset="0.929" stop-color="#414243"/>
<stop offset="1" stop-color="#2B2B2B"/>
</linearGradient>
<linearGradient id="paint12_linear_479_9080" x1="8.33447" y1="44.971" x2="52.3729" y2="87.5268" gradientUnits="userSpaceOnUse">
<stop stop-color="#F0F4FF"/>
<stop offset="0.109" stop-color="#EBEFF9"/>
<stop offset="0.247" stop-color="#DCE0EA"/>
<stop offset="0.403" stop-color="#C4C7CF"/>
<stop offset="0.57" stop-color="#A2A4AB"/>
<stop offset="0.747" stop-color="#76777C"/>
<stop offset="0.929" stop-color="#414243"/>
<stop offset="1" stop-color="#2B2B2B"/>
</linearGradient>
<linearGradient id="paint13_linear_479_9080" x1="29.6394" y1="29.7963" x2="52.475" y2="51.8631" gradientUnits="userSpaceOnUse">
<stop stop-color="#C2D7E8"/>
<stop offset="0.134" stop-color="#BACFE1"/>
<stop offset="0.343" stop-color="#A4BACD"/>
<stop offset="0.6" stop-color="#8098AC"/>
<stop offset="0.894" stop-color="#4E697F"/>
<stop offset="1" stop-color="#3A566D"/>
</linearGradient>
<linearGradient id="paint14_linear_479_9080" x1="18.203" y1="35.2036" x2="61.7981" y2="77.3309" gradientUnits="userSpaceOnUse">
<stop stop-color="#F0F4FF"/>
<stop offset="0.097" stop-color="#E8EBF6"/>
<stop offset="0.257" stop-color="#D1D4DD"/>
<stop offset="0.459" stop-color="#ABAEB5"/>
<stop offset="0.695" stop-color="#78797D"/>
<stop offset="0.958" stop-color="#363637"/>
<stop offset="1" stop-color="#2B2B2B"/>
</linearGradient>
<linearGradient id="paint15_linear_479_9080" x1="50.3353" y1="50.8306" x2="65.6274" y2="65.6077" gradientUnits="userSpaceOnUse">
<stop stop-color="#D9DEF0"/>
<stop offset="0.123" stop-color="#D4DAEC"/>
<stop offset="0.263" stop-color="#C7CFE2"/>
<stop offset="0.411" stop-color="#B0BCD1"/>
<stop offset="0.566" stop-color="#90A1B8"/>
<stop offset="0.725" stop-color="#677F99"/>
<stop offset="0.885" stop-color="#355674"/>
<stop offset="0.972" stop-color="#173D5D"/>
</linearGradient>
<linearGradient id="paint16_linear_479_9080" x1="34.6922" y1="19.2151" x2="78.2402" y2="61.2968" gradientUnits="userSpaceOnUse">
<stop stop-color="#F0F4FF"/>
<stop offset="0.109" stop-color="#EBEFF9"/>
<stop offset="0.247" stop-color="#DCE0EA"/>
<stop offset="0.403" stop-color="#C4C7CF"/>
<stop offset="0.57" stop-color="#A2A4AB"/>
<stop offset="0.747" stop-color="#76777C"/>
<stop offset="0.929" stop-color="#414243"/>
<stop offset="1" stop-color="#2B2B2B"/>
</linearGradient>
<clipPath id="clip0_479_9080">
<rect width="100" height="100" fill="white"/>
</clipPath>
</defs>
</svg>
