<svg width="100" height="100" viewBox="0 0 100 100" fill="none" xmlns="http://www.w3.org/2000/svg">
<g clip-path="url(#clip0_479_9104)">
<path d="M98.9062 50C98.9062 77.0312 77.0312 98.9062 50 98.9062C22.9688 98.9062 1.09375 77.0312 1.09375 50C1.09375 22.9688 22.9688 1.09375 50 1.09375C77.0312 1.09375 98.9062 22.9688 98.9062 50ZM50 4.0625C24.5312 4.0625 4.0625 24.5312 4.0625 50C4.0625 75.4688 24.6875 95.9375 50 95.9375C75.4688 95.9375 95.9375 75.3125 95.9375 50C95.9375 24.5312 75.4688 4.0625 50 4.0625Z" fill="url(#paint0_linear_479_9104)"/>
<path d="M50 4.0625C24.5312 4.0625 4.0625 24.5312 4.0625 50C4.0625 75.4688 24.6875 95.9375 50 95.9375C75.4688 95.9375 95.9375 75.3125 95.9375 50C95.9375 24.5312 75.4688 4.0625 50 4.0625ZM50 92.9688C26.25 92.9688 7.03125 73.75 7.03125 50C7.03125 26.25 26.25 7.03125 50 7.03125C73.75 7.03125 92.9688 26.25 92.9688 50C92.9688 73.75 73.75 92.9688 50 92.9688Z" fill="url(#paint1_linear_479_9104)"/>
<path opacity="0.4" d="M50 98.9062C77.0312 98.9062 98.9062 77.0312 98.9062 50C98.9062 22.9688 77.0312 1.09375 50 1.09375C22.9688 1.09375 1.09375 22.9688 1.09375 50C1.09375 77.0312 22.9688 98.9062 50 98.9062ZM50 0C77.5 0 100 22.5 100 50C100 77.5 77.5 100 50 100C22.5 100 0 77.5 0 50C0 22.5 22.5 0 50 0Z" fill="url(#paint2_linear_479_9104)"/>
<path d="M3.4375 50.1562C3.4375 24.5312 24.2187 3.4375 50 3.4375C75.7812 3.4375 96.5625 24.375 96.5625 50.1562C96.5625 75.7812 75.7812 96.5625 50 96.5625C24.2187 96.5625 3.4375 75.7812 3.4375 50.1562ZM17.9688 17.9688C9.6875 26.25 4.53125 37.6562 4.53125 50.1562C4.53125 62.6562 9.6875 74.0625 17.8125 82.1875C26.0938 90.3125 37.5 95.4688 50 95.4688C62.5 95.4688 73.9062 90.4688 82.0312 82.1875C90.3125 74.0625 95.3125 62.6562 95.3125 50.1562C95.3125 37.6562 90.1562 26.25 82.0312 17.9688C73.9062 9.6875 62.5 4.53125 50 4.53125C37.5 4.53125 26.0938 9.6875 17.9688 17.9688Z" fill="white"/>
<path opacity="0.4" d="M50 93.125C38.4375 93.125 27.6562 88.5938 19.5313 80.4688C11.4063 72.3438 6.875 61.5625 6.875 50C6.875 38.4375 11.4063 27.6562 19.5313 19.5313C27.6562 11.4063 38.4375 6.875 50 6.875C61.5625 6.875 72.3438 11.4063 80.4688 19.5313C88.5938 27.6562 93.125 38.4375 93.125 50C93.125 61.5625 88.5938 72.3438 80.4688 80.4688C72.3438 88.5938 61.5625 93.125 50 93.125ZM50 91.875C61.0938 91.875 71.7188 87.5 79.5312 79.6875C87.5 71.7188 91.7188 61.25 91.7188 50.1562C91.7188 39.0625 87.3438 28.4375 79.5312 20.625C71.5625 12.6562 61.0938 8.4375 50 8.4375C38.9062 8.4375 28.2813 12.8125 20.4688 20.625C12.5 28.2812 8.125 38.9062 8.125 50C8.125 61.0938 12.5 71.7188 20.3125 79.5312C28.2812 87.5 38.9062 91.875 50 91.875Z" fill="url(#paint3_linear_479_9104)"/>
<path d="M87.9688 70.3125C87.1875 69.6875 57.0312 45.7812 57.0312 45.7812L50 5.625C49.5312 5.78125 48.9062 6.25 48.5938 6.875L43.5937 45.9375L12.5 69.8438C12.5 69.8438 11.875 70.625 11.5625 71.0938C11.4062 71.4062 11.4062 71.875 11.4062 72.3438L49.8437 56.5625L88.2812 72.3438C88.5938 71.5625 88.2812 70.7812 87.9688 70.3125Z" fill="white"/>
<path d="M50.3125 51.25L50 58.4375L85.3125 72.6563C86.5625 73.2813 87.5 72.9688 88.4375 72.3438L50.7812 51.0938C50.625 50.9375 50.3125 51.0938 50.3125 51.25Z" fill="#565F64"/>
<path d="M50.3125 51.25C50.3125 51.25 52.3437 54.8438 54.6875 57.3438C57.9687 60.9375 62.3438 63.4375 62.3438 63.4375L85.3125 72.6563C86.5625 73.2813 87.5 72.9688 88.4375 72.3438L50.7812 51.0938C50.625 50.9375 50.3125 51.0938 50.3125 51.25Z" fill="url(#paint4_linear_479_9104)"/>
<path d="M88.2812 70.9375C88.2812 70.7813 88.125 70.625 87.9687 70.3125L55.7812 46.7188L51.4062 49.5313C51.4062 49.5313 51.7187 49.6875 51.875 49.5313C52.3437 49.375 53.2812 49.2188 54.2187 49.5313C55 49.8438 88.2812 71.0938 88.2812 70.9375C88.2812 71.0938 88.2812 71.0938 88.2812 70.9375Z" fill="#A4AAAE" fill-opacity="0.6"/>
<path d="M87.1875 69.5313L57.1875 45.7812L55.7812 46.7188L87.9687 70.4687C87.8125 70.1562 87.5 69.8438 87.1875 69.5313Z" fill="#333E46"/>
<path d="M50.7813 48.9062L50.625 49.0625C50.625 49.0625 50.625 49.375 50.9375 49.2187C51.0937 49.0625 55.625 46.7187 57.1875 45.7812L51.7187 8.28125C51.5625 6.875 50.9375 6.25 49.8438 5.78125L50.4687 49.2187L50.7813 48.9062Z" fill="#565F64"/>
<path d="M48.125 8.28125V10.3125L44.6875 44.8438C44.6875 45.3125 44.8438 45.7812 45.3125 46.0938L47.3438 47.6562L48.75 9.53125L48.9062 6.5625C48.4375 6.875 48.2812 7.5 48.125 8.28125ZM46.25 48.2812L44.375 46.7188L12.6563 69.6875C12.6563 69.6875 11.7188 70.3125 11.5625 70.9375L12.6563 70.3125L45.9375 49.375C46.5625 49.0625 46.7188 48.75 46.25 48.2812Z" fill="#A4AAAE" fill-opacity="0.6"/>
<path d="M49.5313 51.25C49.5313 51.0938 49.375 50.9375 49.2188 51.0938L11.4062 72.5C12.3438 73.125 13.2812 73.2813 14.5312 72.8125L49.8437 58.5938L49.5313 51.25Z" fill="#565F64"/>
<path d="M50.625 49.0625C50.625 49.0625 50.625 49.2188 50.7812 49.2188H50.9375C51.0937 49.0625 55.625 46.7188 57.1875 45.7812L56.5625 41.25L51.7187 8.28125C51.7187 7.65625 51.5625 7.1875 51.25 6.875C51.25 6.875 53.5937 38.4375 53.5937 41.875C53.5937 46.4062 50.625 49.0625 50.625 49.0625Z" fill="url(#paint5_linear_479_9104)"/>
<path d="M49.5313 51.25C49.5313 51.0938 49.375 50.9375 49.2188 51.0938L11.4062 72.5C12.3438 73.125 13.2812 73.2813 14.5312 72.8125L49.8437 58.5938L49.5313 51.25Z" fill="url(#paint6_linear_479_9104)" fill-opacity="0.8"/>
<path opacity="0.8" d="M14.5313 72.6562L49.8438 58.4375L49.5312 51.5625C48.9062 53.4375 47.8125 55.4688 44.8438 57.0312C42.6562 58.2812 21.7188 68.5938 14.2188 72.1875C13.75 72.5 13.125 72.6562 12.8125 72.8125C13.4375 73.125 13.9063 72.9688 14.5313 72.6562Z" fill="url(#paint7_linear_479_9104)"/>
<path d="M50.7813 48.9062L50.625 49.0625C50.625 49.0625 50.625 49.375 50.9375 49.2187C51.0937 49.0625 55.625 46.7187 57.1875 45.7812L51.7187 8.28125C51.5625 6.875 50.9375 6.25 49.8438 5.78125L50.4687 49.2187L50.7813 48.9062Z" fill="url(#paint8_linear_479_9104)"/>
<path d="M50.7813 48.9062L50.625 49.0625C50.625 49.0625 50.625 49.375 50.9375 49.2187C51.0937 49.0625 55.625 46.7187 57.1875 45.7812L51.7187 8.28125C51.5625 6.875 50.9375 6.25 49.8438 5.78125L50.4687 49.2187L50.7813 48.9062Z" fill="url(#paint9_linear_479_9104)"/>
<path d="M7.96875 69.375C6.875 66.875 0.625 54.6875 7.5 31.25H4.84375C3.4375 35.9375 2.34375 38.75 1.71875 42.9688C1.71875 42.9688 1.40625 44.5313 1.25 46.25C1.09375 47.9688 1.09375 48.9062 1.09375 50C1.09375 59.375 3.4375 64.8438 3.4375 64.8438C5.9375 72.6562 10.3125 79.6875 16.25 85C21.4062 89.5313 29.375 92.9688 35.9375 94.2188C34.8438 94.0625 16.0938 86.0938 7.96875 69.375Z" fill="url(#paint10_linear_479_9104)"/>
<path d="M50.625 50.9375H49.2188C49.375 50.9375 49.5313 50.9375 49.5313 51.0938L49.8437 58.2813H50L50.3125 51.0938C50.3125 50.9375 50.4688 50.7813 50.625 50.9375Z" fill="url(#paint11_linear_479_9104)"/>
<path d="M65.625 3.59375C82.0312 9.84375 97.5 27.0313 97.5 48.75C97.5 75 76.5625 96.4062 50 96.4062V98.9062C76.5625 98.9062 98.9062 77.0312 98.9062 50C98.9062 28.4375 85.1562 10.3125 65.625 3.59375Z" fill="url(#paint12_linear_479_9104)"/>
<path d="M91.875 31.5625C80.9375 6.40625 56.25 5 54.8437 4.84375H54.6875C73.5938 8.28125 85.625 20.625 89.8438 33.5938V33.75C91.7188 38.75 92.6563 44.0625 92.8125 49.8438C92.9688 55.3125 91.7188 61.4063 89.375 67.0313C89.2188 67.8125 89.0625 68.75 88.9063 68.75H91.4062C98.9062 54.6875 95.625 40.4688 91.875 31.5625Z" fill="url(#paint13_linear_479_9104)"/>
<path d="M3.4375 50.1562C3.4375 24.5312 24.2187 3.4375 50 3.4375C75.7812 3.4375 96.5625 24.375 96.5625 50.1562C96.5625 75.7812 75.7812 96.5625 50 96.5625C24.2187 96.5625 3.4375 75.7812 3.4375 50.1562ZM17.9688 17.9688C9.6875 26.25 4.53125 37.6562 4.53125 50.1562C4.53125 62.6562 9.6875 74.0625 17.8125 82.1875C26.0938 90.3125 37.5 95.4688 50 95.4688C62.5 95.4688 73.9062 90.4688 82.0312 82.1875C90.3125 74.0625 95.3125 62.6562 95.3125 50.1562C95.3125 37.6562 90.1562 26.25 82.0312 17.9688C73.9062 9.6875 62.5 4.53125 50 4.53125C37.5 4.53125 26.0938 9.6875 17.9688 17.9688Z" fill="#FBFBFB"/>
<path d="M12.3438 70L44.2188 47.0312C45.9375 47.9688 48.75 49.2187 49.0625 49.2187C49.375 49.375 49.375 49.0625 49.375 49.0625L45.4688 45.7812C45 45.4687 44.8438 45 44.8438 44.5312L48.5938 6.875C48.4375 7.03125 48.4375 7.34375 48.2812 7.5C48.125 7.8125 48.125 7.96875 48.125 8.28125L42.6562 45.9375L12.6563 69.5312C12.5 69.6875 12.3438 69.8437 12.3438 70Z" fill="#333F47"/>
</g>
<defs>
<linearGradient id="paint0_linear_479_9104" x1="12.4969" y1="18.5906" x2="87.5031" y2="81.4094" gradientUnits="userSpaceOnUse">
<stop stop-color="white"/>
<stop offset="0.1" stop-color="#CDD0D0"/>
<stop offset="0.2" stop-color="#A5ACAF"/>
<stop offset="0.3" stop-color="#98A0A4"/>
<stop offset="0.4" stop-color="#828A8F"/>
<stop offset="0.5" stop-color="#667075"/>
<stop offset="0.6" stop-color="#535C63"/>
<stop offset="0.7" stop-color="#475158"/>
<stop offset="0.8" stop-color="#434D54"/>
<stop offset="1" stop-color="#475157"/>
</linearGradient>
<linearGradient id="paint1_linear_479_9104" x1="14.7984" y1="20.4047" x2="85.1109" y2="79.4672" gradientUnits="userSpaceOnUse">
<stop stop-color="#0B1F2A"/>
<stop offset="0.2" stop-color="#333F47"/>
<stop offset="0.5" stop-color="#81898D"/>
<stop offset="0.7" stop-color="#B3B8B8"/>
<stop offset="0.8" stop-color="#DEE0DD"/>
<stop offset="1" stop-color="#FBFBFB"/>
</linearGradient>
<linearGradient id="paint2_linear_479_9104" x1="67.0891" y1="96.9734" x2="32.8703" y2="2.9125" gradientUnits="userSpaceOnUse">
<stop stop-color="#E1E3E1"/>
<stop offset="0.1" stop-color="#C1C5C4"/>
<stop offset="0.3" stop-color="#9BA1A2"/>
<stop offset="0.5" stop-color="#7D8487"/>
<stop offset="0.7" stop-color="#687074" stop-opacity="0"/>
<stop offset="0.8" stop-color="#5B6469" stop-opacity="0"/>
<stop offset="1" stop-color="#576065" stop-opacity="0"/>
</linearGradient>
<linearGradient id="paint3_linear_479_9104" x1="28.4391" y1="12.6578" x2="71.5609" y2="87.3422" gradientUnits="userSpaceOnUse">
<stop stop-color="#E1E3E1"/>
<stop offset="0.1" stop-color="#C1C5C4"/>
<stop offset="0.3" stop-color="#9BA1A2"/>
<stop offset="0.5" stop-color="#7D8487"/>
<stop offset="0.7" stop-color="#687074" stop-opacity="0"/>
<stop offset="0.8" stop-color="#5B6469" stop-opacity="0"/>
<stop offset="1" stop-color="#576065" stop-opacity="0"/>
</linearGradient>
<linearGradient id="paint4_linear_479_9104" x1="69.5125" y1="61.5516" x2="66.8562" y2="65.9266" gradientUnits="userSpaceOnUse">
<stop stop-color="#27343C"/>
<stop offset="1" stop-color="#00111E" stop-opacity="0"/>
</linearGradient>
<linearGradient id="paint5_linear_479_9104" x1="61.8437" y1="45.4875" x2="57.4687" y2="38.4563" gradientUnits="userSpaceOnUse">
<stop offset="0.1" stop-color="#02131F"/>
<stop offset="0.9" stop-color="#02131F" stop-opacity="0"/>
</linearGradient>
<linearGradient id="paint6_linear_479_9104" x1="49.9719" y1="56.775" x2="43.4094" y2="58.65" gradientUnits="userSpaceOnUse">
<stop offset="0.2" stop-color="#02131F"/>
<stop offset="0.9" stop-color="#02131F" stop-opacity="0"/>
</linearGradient>
<linearGradient id="paint7_linear_479_9104" x1="32.4859" y1="65.475" x2="31.5484" y2="63.1312" gradientUnits="userSpaceOnUse">
<stop stop-color="#02131F"/>
<stop offset="0.1" stop-color="#02131F"/>
<stop offset="1" stop-color="#02131F" stop-opacity="0"/>
</linearGradient>
<linearGradient id="paint8_linear_479_9104" x1="55.6281" y1="26.8969" x2="50.3156" y2="27.5219" gradientUnits="userSpaceOnUse">
<stop offset="0.3" stop-color="#02131F"/>
<stop offset="0.8" stop-color="#02131F" stop-opacity="0"/>
</linearGradient>
<linearGradient id="paint9_linear_479_9104" x1="55.7937" y1="26.8078" x2="52.1984" y2="27.2766" gradientUnits="userSpaceOnUse">
<stop offset="0.4" stop-color="#27343C"/>
<stop offset="1" stop-color="#3B474E" stop-opacity="0"/>
</linearGradient>
<linearGradient id="paint10_linear_479_9104" x1="-0.5625" y1="51.2984" x2="43.0312" y2="76.4547" gradientUnits="userSpaceOnUse">
<stop stop-color="#25323B" stop-opacity="0"/>
<stop offset="0.1" stop-color="#27343C"/>
</linearGradient>
<linearGradient id="paint11_linear_479_9104" x1="49.9219" y1="58.4375" x2="49.9219" y2="50.9375" gradientUnits="userSpaceOnUse">
<stop offset="0.3" stop-color="#A5ABAF"/>
<stop offset="1" stop-color="#A5ABAF" stop-opacity="0"/>
</linearGradient>
<linearGradient id="paint12_linear_479_9104" x1="74.4531" y1="3.59375" x2="74.4531" y2="98.9062" gradientUnits="userSpaceOnUse">
<stop stop-color="#6B7378"/>
<stop offset="0.2" stop-color="#333F47"/>
<stop offset="0.5" stop-color="#27343C"/>
<stop offset="0.8" stop-color="#333F47"/>
<stop offset="1" stop-color="#434D54"/>
</linearGradient>
<linearGradient id="paint13_linear_479_9104" x1="89.5141" y1="12.6453" x2="68.4203" y2="43.5828" gradientUnits="userSpaceOnUse">
<stop offset="0.7" stop-color="#49545B"/>
<stop offset="0.8" stop-color="white" stop-opacity="0"/>
</linearGradient>
<clipPath id="clip0_479_9104">
<rect width="100" height="100" fill="white"/>
</clipPath>
</defs>
</svg>
